<?xml version="1.0" encoding="UTF-8" standalone="no"?><!DOCTYPE svg PUBLIC "-//W3C//DTD SVG 1.1//EN" "http://www.w3.org/Graphics/SVG/1.1/DTD/svg11.dtd"><svg width="100%" height="100%" viewBox="0 0 401 208" version="1.1" xmlns="http://www.w3.org/2000/svg" xmlns:xlink="http://www.w3.org/1999/xlink" xml:space="preserve" xmlns:serif="http://www.serif.com/" style="fill-rule:evenodd;clip-rule:evenodd;stroke-miterlimit:10;"><g id="Layer2"><g><path d="M137.284,23.75l0,0Z" style="fill:none;fill-rule:nonzero;stroke:#000;stroke-opacity:0;stroke-width:0.1px;"/><path d="M135.528,29.453c0.395,1.472 1.652,2.406 3.195,2.406c1.258,0 2.085,-0.826 2.658,-1.975c0.611,-1.293 1.078,-3.484 1.078,-3.556c0,-0.359 -0.323,-0.359 -0.431,-0.359c-0.359,0 -0.395,0.143 -0.503,0.647c-0.503,2.011 -1.184,4.453 -2.694,4.453c-0.753,0 -1.112,-0.467 -1.112,-1.652c0,-0.79 0.431,-2.478 0.719,-3.736l1.004,-3.878c0.108,-0.539 0.467,-1.903 0.611,-2.442c0.18,-0.827 0.539,-2.191 0.539,-2.406c0,-0.647 -0.503,-0.971 -1.042,-0.971c-0.18,0 -1.112,0.036 -1.4,1.258c-0.683,2.622 -2.262,8.906 -2.694,10.81c-0.036,0.143 -1.473,3.017 -4.093,3.017c-1.869,0 -2.229,-1.616 -2.229,-2.946c0,-2.011 1.007,-4.848 1.941,-7.326c0.43,-1.077 0.609,-1.58 0.609,-2.263c0,-1.615 -1.148,-2.943 -2.943,-2.943c-3.413,0 -4.741,5.206 -4.741,5.529c0,0.36 0.358,0.36 0.43,0.36c0.359,0 0.395,-0.072 0.575,-0.647c0.898,-3.124 2.262,-4.453 3.628,-4.453c0.323,0 0.897,0.036 0.897,1.186c0,0.861 -0.396,1.903 -0.61,2.442c-1.329,3.554 -2.084,5.781 -2.084,7.542c0,3.411 2.478,4.309 4.419,4.309c2.37,0 3.662,-1.615 4.273,-2.406" style="fill-rule:nonzero;"/><path d="M149.623,6.764l2.557,0c0.476,0 0.801,0 0.801,-0.552c0,-0.351 -0.325,-0.351 -0.751,-0.351l-2.382,0l0.929,-3.71c0.025,-0.125 0.075,-0.25 0.075,-0.35c0,-0.451 -0.352,-0.801 -0.852,-0.801c-0.627,0 -1.003,0.425 -1.178,1.076c-0.177,0.627 0.15,-0.576 -0.953,3.785l-2.556,0c-0.477,0 -0.802,0 -0.802,0.551c0,0.352 0.3,0.352 0.752,0.352l2.381,0l-1.48,5.916c-0.15,0.626 -0.375,1.528 -0.375,1.854c0,1.478 1.253,2.38 2.681,2.38c2.783,0 4.361,-3.508 4.361,-3.834c0,-0.325 -0.325,-0.325 -0.4,-0.325c-0.301,0 -0.326,0.05 -0.526,0.475c-0.702,1.579 -1.982,2.982 -3.36,2.982c-0.526,0 -0.876,-0.325 -0.876,-1.228c0,-0.25 0.1,-0.776 0.15,-1.026l1.804,-7.194" style="fill-rule:nonzero;"/><path d="M151.578,24.7c0,-0.402 -0.3,-0.953 -1.001,-0.953c-0.679,0 -1.405,0.651 -1.405,1.378c0,0.427 0.326,0.953 1.003,0.953c0.727,0 1.403,-0.701 1.403,-1.378Zm-5.112,12.731c-0.1,0.327 -0.225,0.627 -0.225,1.053c0,1.178 1.001,2.13 2.379,2.13c2.507,0 3.61,-3.458 3.61,-3.834c0,-0.325 -0.325,-0.325 -0.4,-0.325c-0.352,0 -0.377,0.15 -0.477,0.425c-0.576,2.006 -1.68,3.032 -2.658,3.032c-0.5,0 -0.626,-0.325 -0.626,-0.876c0,-0.577 0.176,-1.053 0.401,-1.605c0.252,-0.676 0.527,-1.353 0.802,-2.004c0.226,-0.602 1.128,-2.883 1.228,-3.183c0.077,-0.252 0.152,-0.552 0.152,-0.802c0,-1.178 -1.004,-2.131 -2.382,-2.131c-2.481,0 -3.634,3.409 -3.634,3.834c0,0.327 0.35,0.327 0.427,0.327c0.35,0 0.375,-0.125 0.45,-0.402c0.651,-2.154 1.754,-3.058 2.682,-3.058c0.4,0 0.627,0.202 0.627,0.879c0,0.576 -0.152,0.951 -0.778,2.506l-1.578,4.034" style="fill-rule:nonzero;"/><path d="M158.847,39.962c0,1.38 -0.252,2.983 -1.956,4.588c-0.1,0.1 -0.175,0.175 -0.175,0.3c0,0.176 0.2,0.352 0.351,0.352c0.35,0 2.481,-2.005 2.481,-4.988c0,-1.555 -0.601,-2.733 -1.754,-2.733c-0.827,0 -1.428,0.652 -1.428,1.43c0,0.801 0.575,1.453 1.453,1.453c0.601,0 1.003,-0.402 1.028,-0.402" style="fill-rule:nonzero;"/><path d="M173.061,24.7c0,-0.427 -0.327,-0.953 -1.003,-0.953c-0.727,0 -1.403,0.701 -1.403,1.378c0,0.401 0.3,0.953 1.003,0.953c0.676,0 1.403,-0.651 1.403,-1.378Zm-5.314,16.892c-0.425,1.73 -1.755,3.183 -3.233,3.183c-0.326,0 -0.626,-0.05 -0.901,-0.15c0.651,-0.302 0.851,-0.903 0.851,-1.278c0,-0.602 -0.476,-0.928 -0.978,-0.928c-0.777,0 -1.428,0.676 -1.428,1.479c0,0.952 0.978,1.578 2.481,1.578c1.503,0 4.436,-0.901 5.213,-3.959l2.256,-8.973c0.075,-0.275 0.125,-0.5 0.125,-0.877c0,-1.378 -1.178,-2.356 -2.681,-2.356c-2.783,0 -4.386,3.484 -4.386,3.834c0,0.327 0.35,0.327 0.426,0.327c0.3,0 0.325,-0.075 0.5,-0.452c0.627,-1.453 1.931,-3.008 3.385,-3.008c0.626,0 0.851,0.427 0.851,1.229c0,0.276 -0.05,0.626 -0.075,0.751l-2.406,9.6" style="fill-rule:nonzero;"/></g><g><path d="M22.55,50.389c0.18,-0.791 0.539,-2.119 0.539,-2.334c0,-0.647 -0.503,-0.971 -1.042,-0.971c-0.431,0 -1.077,0.288 -1.328,1.007c-0.108,0.251 -1.796,7.11 -2.047,8.045c-0.252,1.076 -0.324,1.723 -0.324,2.37c0,0.395 0,0.466 0.036,0.645c-0.826,1.905 -1.903,3.018 -3.304,3.018c-2.874,0 -2.874,-2.658 -2.874,-3.268c0,-1.15 0.18,-2.55 1.869,-6.968c0.394,-1.077 0.609,-1.58 0.609,-2.299c0,-1.615 -1.184,-2.943 -2.943,-2.943c-3.413,0 -4.741,5.206 -4.741,5.529c0,0.36 0.358,0.36 0.43,0.36c0.359,0 0.395,-0.072 0.575,-0.647c0.97,-3.339 2.37,-4.453 3.628,-4.453c0.323,0 0.897,0.036 0.897,1.186c0,0.896 -0.396,1.903 -0.646,2.514c-1.581,4.237 -2.012,5.889 -2.012,7.254c0,3.267 2.406,4.525 5.1,4.525c0.611,0 2.298,0 3.736,-2.514c0.933,2.299 3.411,2.514 4.489,2.514c2.694,0 4.273,-2.262 5.208,-4.417c1.22,-2.801 2.37,-7.614 2.37,-9.337c0,-1.977 -0.97,-2.514 -1.581,-2.514c-0.897,0 -1.796,0.932 -1.796,1.723c0,0.467 0.216,0.683 0.54,0.969c0.395,0.395 1.292,1.329 1.292,3.053c0,1.222 -1.041,4.74 -1.975,6.572c-0.933,1.904 -2.191,3.161 -3.95,3.161c-1.689,0 -2.658,-1.077 -2.658,-3.125c0,-1.005 0.251,-2.119 0.395,-2.621l1.508,-6.034" style="fill-rule:nonzero;"/><path d="M38.723,37.764l2.557,0c0.476,0 0.801,0 0.801,-0.552c0,-0.351 -0.325,-0.351 -0.751,-0.351l-2.382,0l0.929,-3.71c0.025,-0.125 0.075,-0.25 0.075,-0.35c0,-0.451 -0.352,-0.801 -0.852,-0.801c-0.627,0 -1.003,0.425 -1.178,1.076c-0.177,0.627 0.15,-0.576 -0.953,3.785l-2.556,0c-0.477,0 -0.802,0 -0.802,0.551c0,0.352 0.3,0.352 0.751,0.352l2.382,0l-1.48,5.916c-0.15,0.626 -0.375,1.528 -0.375,1.854c0,1.478 1.253,2.38 2.681,2.38c2.783,0 4.361,-3.508 4.361,-3.834c0,-0.325 -0.325,-0.325 -0.4,-0.325c-0.301,0 -0.326,0.05 -0.526,0.475c-0.702,1.579 -1.982,2.982 -3.36,2.982c-0.526,0 -0.876,-0.325 -0.876,-1.228c0,-0.25 0.1,-0.776 0.15,-1.026l1.804,-7.194" style="fill-rule:nonzero;"/><path d="M39.778,55.7c0,-0.402 -0.3,-0.953 -1.001,-0.953c-0.679,0 -1.405,0.651 -1.405,1.378c0,0.426 0.326,0.953 1.003,0.953c0.727,0 1.403,-0.702 1.403,-1.378Zm-5.112,12.731c-0.1,0.327 -0.225,0.627 -0.225,1.053c0,1.178 1.001,2.13 2.379,2.13c2.507,0 3.61,-3.458 3.61,-3.834c0,-0.325 -0.325,-0.325 -0.4,-0.325c-0.352,0 -0.377,0.15 -0.477,0.425c-0.576,2.006 -1.68,3.032 -2.658,3.032c-0.5,0 -0.626,-0.325 -0.626,-0.876c0,-0.577 0.176,-1.053 0.401,-1.605c0.252,-0.676 0.527,-1.353 0.802,-2.005c0.226,-0.601 1.128,-2.882 1.228,-3.182c0.077,-0.252 0.152,-0.552 0.152,-0.802c0,-1.178 -1.004,-2.131 -2.382,-2.131c-2.481,0 -3.634,3.409 -3.634,3.834c0,0.327 0.35,0.327 0.427,0.327c0.35,0 0.375,-0.125 0.45,-0.402c0.651,-2.154 1.754,-3.058 2.682,-3.058c0.4,0 0.627,0.202 0.627,0.879c0,0.576 -0.152,0.951 -0.778,2.506l-1.578,4.034" style="fill-rule:nonzero;"/><path d="M47.047,70.962c-0,1.38 -0.252,2.983 -1.956,4.588c-0.1,0.1 -0.175,0.175 -0.175,0.3c-0,0.176 0.2,0.351 0.351,0.351c0.35,0 2.481,-2.004 2.481,-4.987c-0,-1.555 -0.601,-2.733 -1.754,-2.733c-0.827,0 -1.428,0.652 -1.428,1.43c-0,0.801 0.575,1.453 1.453,1.453c0.601,0 1.003,-0.402 1.028,-0.402" style="fill-rule:nonzero;"/><path d="M61.261,55.7c0,-0.427 -0.327,-0.953 -1.003,-0.953c-0.727,0 -1.403,0.701 -1.403,1.378c0,0.401 0.3,0.953 1.003,0.953c0.676,0 1.403,-0.652 1.403,-1.378Zm-5.314,16.892c-0.425,1.73 -1.755,3.183 -3.233,3.183c-0.326,0 -0.626,-0.05 -0.901,-0.15c0.651,-0.302 0.851,-0.903 0.851,-1.278c0,-0.602 -0.476,-0.928 -0.978,-0.928c-0.777,0 -1.428,0.676 -1.428,1.479c0,0.952 0.978,1.578 2.481,1.578c1.503,0 4.436,-0.901 5.213,-3.959l2.256,-8.973c0.075,-0.275 0.125,-0.5 0.125,-0.877c0,-1.378 -1.178,-2.356 -2.681,-2.356c-2.783,0 -4.386,3.484 -4.386,3.834c0,0.327 0.35,0.327 0.426,0.327c0.3,0 0.325,-0.075 0.5,-0.452c0.627,-1.453 1.931,-3.008 3.385,-3.008c0.626,0 0.851,0.427 0.851,1.229c0,0.276 -0.05,0.626 -0.075,0.751l-2.406,9.6" style="fill-rule:nonzero;"/></g><g><path d="M356.612,181.992l0,0Z" style="fill:none;fill-rule:nonzero;stroke:#000;stroke-opacity:0;stroke-width:0.1px;"/><path d="M337.55,177.767c0.18,-0.79 0.539,-2.119 0.539,-2.334c0,-0.647 -0.503,-0.971 -1.042,-0.971c-0.431,0 -1.077,0.288 -1.328,1.007c-0.108,0.251 -1.796,7.111 -2.047,8.045c-0.252,1.077 -0.324,1.723 -0.324,2.37c0,0.396 0,0.466 0.036,0.646c-0.826,1.904 -1.903,3.017 -3.304,3.017c-2.874,0 -2.874,-2.658 -2.874,-3.267c0,-1.15 0.18,-2.55 1.869,-6.969c0.394,-1.077 0.609,-1.58 0.609,-2.299c0,-1.615 -1.184,-2.943 -2.943,-2.943c-3.413,0 -4.741,5.206 -4.741,5.529c0,0.36 0.358,0.36 0.43,0.36c0.359,0 0.395,-0.072 0.575,-0.647c0.97,-3.339 2.37,-4.453 3.628,-4.453c0.323,0 0.897,0.036 0.897,1.186c0,0.897 -0.396,1.903 -0.646,2.514c-1.581,4.237 -2.012,5.889 -2.012,7.254c0,3.268 2.406,4.525 5.1,4.525c0.611,0 2.298,0 3.736,-2.514c0.933,2.299 3.411,2.514 4.489,2.514c2.694,0 4.273,-2.262 5.208,-4.417c1.22,-2.801 2.37,-7.614 2.37,-9.337c0,-1.977 -0.97,-2.514 -1.581,-2.514c-0.897,0 -1.796,0.933 -1.796,1.723c0,0.467 0.216,0.683 0.54,0.969c0.395,0.395 1.292,1.33 1.292,3.053c0,1.222 -1.041,4.741 -1.975,6.572c-0.933,1.905 -2.191,3.161 -3.95,3.161c-1.689,0 -2.658,-1.077 -2.658,-3.125c0,-1.005 0.251,-2.119 0.395,-2.62l1.508,-6.035" style="fill-rule:nonzero;"/><path d="M353.723,164.742l2.557,0c0.476,0 0.801,0 0.801,-0.551c0,-0.352 -0.325,-0.352 -0.751,-0.352l-2.382,0l0.929,-3.709c0.025,-0.125 0.075,-0.25 0.075,-0.35c0,-0.452 -0.352,-0.802 -0.852,-0.802c-0.627,0 -1.003,0.425 -1.178,1.077c-0.177,0.626 0.15,-0.577 -0.953,3.784l-2.556,0c-0.477,0 -0.802,0 -0.802,0.552c0,0.351 0.3,0.351 0.752,0.351l2.381,0l-1.48,5.916c-0.15,0.626 -0.375,1.528 -0.375,1.854c0,1.479 1.253,2.38 2.681,2.38c2.783,0 4.361,-3.508 4.361,-3.834c0,-0.325 -0.325,-0.325 -0.4,-0.325c-0.301,0 -0.326,0.05 -0.526,0.475c-0.702,1.579 -1.982,2.983 -3.36,2.983c-0.526,0 -0.876,-0.325 -0.876,-1.229c0,-0.25 0.1,-0.776 0.15,-1.026l1.804,-7.194" style="fill-rule:nonzero;"/><path d="M370.063,168.978l7.668,0c0.327,0 0.928,0 0.928,-0.601c0,-0.627 -0.576,-0.627 -0.928,-0.627l-7.668,0l0,-7.695c0,-0.325 0,-0.927 -0.602,-0.927c-0.627,0 -0.627,0.577 -0.627,0.927l0,7.695l-7.695,0c-0.325,0 -0.926,0 -0.926,0.602c0,0.626 0.576,0.626 0.926,0.626l7.695,0l0,7.694c0,0.326 0,0.928 0.602,0.928c0.627,0 0.627,-0.577 0.627,-0.928l0,-7.694" style="fill-rule:nonzero;"/><path d="M388.855,158.702c0,-0.677 -0.05,-0.702 -0.753,-0.702c-1.604,1.58 -3.885,1.605 -4.913,1.605l0,0.901c0.602,0 2.256,0 3.634,-0.701l0,12.782c0,0.827 0,1.154 -2.506,1.154l-0.951,0l0,0.901c0.45,-0.025 3.532,-0.1 4.461,-0.1c0.776,0 3.934,0.075 4.486,0.1l0,-0.901l-0.952,0c-2.506,0 -2.506,-0.327 -2.506,-1.154l0,-13.885" style="fill-rule:nonzero;"/><path d="M354.778,184.278c0,-0.401 -0.3,-0.953 -1.001,-0.953c-0.679,0 -1.405,0.652 -1.405,1.378c0,0.427 0.326,0.953 1.003,0.953c0.727,0 1.403,-0.701 1.403,-1.378Zm-5.112,12.731c-0.1,0.327 -0.225,0.627 -0.225,1.054c-0,1.178 1.001,2.129 2.379,2.129c2.507,0 3.61,-3.458 3.61,-3.834c-0,-0.325 -0.325,-0.325 -0.4,-0.325c-0.352,0 -0.377,0.15 -0.477,0.425c-0.576,2.006 -1.68,3.033 -2.658,3.033c-0.5,0 -0.626,-0.325 -0.626,-0.877c-0,-0.576 0.176,-1.053 0.401,-1.605c0.252,-0.676 0.527,-1.353 0.802,-2.004c0.226,-0.602 1.128,-2.883 1.228,-3.183c0.077,-0.252 0.152,-0.552 0.152,-0.802c-0,-1.178 -1.004,-2.131 -2.382,-2.131c-2.481,0 -3.634,3.409 -3.634,3.834c-0,0.327 0.35,0.327 0.427,0.327c0.35,0 0.375,-0.125 0.45,-0.402c0.651,-2.154 1.754,-3.057 2.682,-3.057c0.4,0 0.627,0.201 0.627,0.878c-0,0.576 -0.152,0.951 -0.778,2.506l-1.578,4.034" style="fill-rule:nonzero;"/><path d="M362.047,199.541c0,1.379 -0.252,2.982 -1.956,4.587c-0.1,0.1 -0.175,0.175 -0.175,0.3c0,0.177 0.2,0.352 0.351,0.352c0.35,0 2.481,-2.005 2.481,-4.988c0,-1.554 -0.601,-2.733 -1.754,-2.733c-0.827,0 -1.428,0.652 -1.428,1.43c0,0.802 0.575,1.453 1.453,1.453c0.601,0 1.003,-0.401 1.028,-0.401" style="fill-rule:nonzero;"/><path d="M376.261,184.278c0,-0.426 -0.327,-0.953 -1.003,-0.953c-0.727,0 -1.403,0.702 -1.403,1.378c0,0.402 0.3,0.953 1.003,0.953c0.676,0 1.403,-0.651 1.403,-1.378Zm-5.314,16.892c-0.425,1.73 -1.755,3.183 -3.233,3.183c-0.326,0 -0.626,-0.05 -0.901,-0.15c0.651,-0.301 0.851,-0.903 0.851,-1.278c0,-0.602 -0.476,-0.928 -0.978,-0.928c-0.777,0 -1.428,0.676 -1.428,1.48c0,0.951 0.978,1.578 2.481,1.578c1.503,0 4.436,-0.902 5.213,-3.96l2.256,-8.973c0.075,-0.275 0.125,-0.5 0.125,-0.877c0,-1.378 -1.178,-2.356 -2.681,-2.356c-2.783,0 -4.386,3.484 -4.386,3.834c0,0.327 0.35,0.327 0.426,0.327c0.3,0 0.325,-0.075 0.5,-0.452c0.627,-1.453 1.931,-3.007 3.385,-3.007c0.626,0 0.851,0.426 0.851,1.228c0,0.276 -0.05,0.626 -0.075,0.751l-2.406,9.6" style="fill-rule:nonzero;"/></g></g><g id="Layer3"><g><path d="M223.413,29.781c0.143,-0.503 0.143,-0.575 0.143,-0.826c0,-0.647 -0.503,-0.971 -1.042,-0.971c-0.359,-0 -0.933,0.216 -1.256,0.755c-0.072,0.18 -0.36,1.294 -0.503,1.939c-0.252,0.934 -0.503,1.905 -0.719,2.873l-1.616,6.465c-0.143,0.539 -1.687,3.053 -4.058,3.053c-1.832,-0 -2.228,-1.58 -2.228,-2.91c0,-1.651 0.611,-3.878 1.833,-7.039c0.574,-1.472 0.717,-1.867 0.717,-2.586c0,-1.615 -1.148,-2.943 -2.943,-2.943c-3.413,-0 -4.741,5.206 -4.741,5.529c0,0.36 0.358,0.36 0.43,0.36c0.359,-0 0.395,-0.072 0.575,-0.647c0.97,-3.375 2.406,-4.453 3.628,-4.453c0.287,-0 0.897,-0 0.897,1.15c0,0.896 -0.36,1.831 -0.61,2.514c-1.437,3.806 -2.084,5.853 -2.084,7.542c0,3.195 2.262,4.273 4.383,4.273c1.4,-0 2.62,-0.611 3.626,-1.615c-0.467,1.867 -0.898,3.626 -2.334,5.529c-0.934,1.222 -2.298,2.263 -3.95,2.263c-0.503,-0 -2.119,-0.108 -2.73,-1.508c0.575,-0 1.041,-0 1.544,-0.431c0.359,-0.324 0.719,-0.791 0.719,-1.472c0,-1.114 -0.971,-1.258 -1.33,-1.258c-0.825,-0 -2.011,0.575 -2.011,2.334c0,1.796 1.581,3.125 3.808,3.125c3.698,-0 7.398,-3.268 8.403,-7.326l3.449,-13.719" style="fill-rule:nonzero;"/><path d="M231.023,18.764l2.557,0c0.476,0 0.801,0 0.801,-0.552c0,-0.351 -0.325,-0.351 -0.751,-0.351l-2.382,0l0.929,-3.71c0.025,-0.125 0.075,-0.25 0.075,-0.35c0,-0.451 -0.352,-0.801 -0.852,-0.801c-0.627,0 -1.003,0.425 -1.178,1.076c-0.177,0.627 0.15,-0.576 -0.953,3.785l-2.556,0c-0.477,0 -0.802,0 -0.802,0.551c0,0.352 0.3,0.352 0.752,0.352l2.381,0l-1.48,5.916c-0.15,0.626 -0.375,1.528 -0.375,1.854c0,1.478 1.253,2.38 2.681,2.38c2.783,0 4.361,-3.508 4.361,-3.834c0,-0.325 -0.325,-0.325 -0.4,-0.325c-0.301,0 -0.326,0.05 -0.526,0.475c-0.702,1.579 -1.982,2.982 -3.36,2.982c-0.526,0 -0.876,-0.325 -0.876,-1.228c0,-0.25 0.1,-0.776 0.15,-1.026l1.804,-7.194" style="fill-rule:nonzero;"/><path d="M231.678,36.7c0,-0.402 -0.3,-0.953 -1.001,-0.953c-0.679,0 -1.405,0.651 -1.405,1.378c0,0.426 0.326,0.953 1.003,0.953c0.727,0 1.403,-0.702 1.403,-1.378Zm-5.112,12.731c-0.1,0.327 -0.225,0.627 -0.225,1.053c0,1.178 1.001,2.13 2.379,2.13c2.507,0 3.61,-3.458 3.61,-3.834c0,-0.325 -0.325,-0.325 -0.4,-0.325c-0.352,0 -0.377,0.15 -0.477,0.425c-0.576,2.006 -1.68,3.032 -2.658,3.032c-0.5,0 -0.626,-0.325 -0.626,-0.876c0,-0.577 0.176,-1.053 0.401,-1.605c0.252,-0.676 0.527,-1.353 0.802,-2.005c0.226,-0.601 1.128,-2.882 1.228,-3.182c0.077,-0.252 0.152,-0.552 0.152,-0.802c0,-1.178 -1.004,-2.131 -2.382,-2.131c-2.481,0 -3.634,3.409 -3.634,3.834c0,0.327 0.35,0.327 0.427,0.327c0.35,0 0.375,-0.125 0.45,-0.402c0.651,-2.154 1.754,-3.058 2.682,-3.058c0.4,0 0.627,0.202 0.627,0.879c0,0.576 -0.152,0.951 -0.778,2.506l-1.578,4.034" style="fill-rule:nonzero;"/><path d="M238.947,51.962c0,1.38 -0.252,2.983 -1.956,4.588c-0.1,0.1 -0.175,0.175 -0.175,0.3c0,0.176 0.2,0.351 0.351,0.351c0.35,0 2.481,-2.004 2.481,-4.987c0,-1.555 -0.601,-2.733 -1.754,-2.733c-0.827,0 -1.428,0.652 -1.428,1.43c0,0.801 0.575,1.453 1.453,1.453c0.601,0 1.003,-0.402 1.028,-0.402" style="fill-rule:nonzero;"/><path d="M250.555,36.423c0,-0.676 -0.05,-0.701 -0.753,-0.701c-1.604,1.579 -3.885,1.604 -4.913,1.604l0,0.902c0.602,0 2.256,0 3.634,-0.702l0,12.783c0,0.827 0,1.153 -2.506,1.153l-0.951,0l0,0.902c0.45,-0.025 3.532,-0.1 4.461,-0.1c0.776,0 3.934,0.075 4.486,0.1l0,-0.902l-0.952,0c-2.506,0 -2.506,-0.326 -2.506,-1.153l0,-13.886" style="fill-rule:nonzero;"/><path d="M261.747,51.962c0,1.38 -0.252,2.983 -1.956,4.588c-0.1,0.1 -0.175,0.175 -0.175,0.3c0,0.176 0.2,0.351 0.351,0.351c0.35,0 2.481,-2.004 2.481,-4.987c0,-1.555 -0.601,-2.733 -1.754,-2.733c-0.827,0 -1.428,0.652 -1.428,1.43c0,0.801 0.575,1.453 1.453,1.453c0.601,0 1.003,-0.402 1.028,-0.402" style="fill-rule:nonzero;"/><path d="M275.961,36.7c0,-0.427 -0.327,-0.953 -1.003,-0.953c-0.727,0 -1.403,0.701 -1.403,1.378c0,0.401 0.3,0.953 1.003,0.953c0.676,0 1.403,-0.652 1.403,-1.378Zm-5.314,16.892c-0.425,1.73 -1.755,3.183 -3.233,3.183c-0.326,0 -0.626,-0.05 -0.901,-0.15c0.651,-0.302 0.851,-0.903 0.851,-1.278c0,-0.602 -0.476,-0.928 -0.978,-0.928c-0.777,0 -1.428,0.676 -1.428,1.479c0,0.952 0.978,1.578 2.481,1.578c1.503,0 4.436,-0.901 5.213,-3.959l2.256,-8.973c0.075,-0.275 0.125,-0.5 0.125,-0.877c-0,-1.378 -1.178,-2.356 -2.681,-2.356c-2.783,0 -4.386,3.484 -4.386,3.834c-0,0.327 0.35,0.327 0.426,0.327c0.3,0 0.325,-0.075 0.5,-0.452c0.627,-1.453 1.931,-3.008 3.385,-3.008c0.626,0 0.851,0.427 0.851,1.229c-0,0.276 -0.05,0.626 -0.075,0.751l-2.406,9.6" style="fill-rule:nonzero;"/></g><g><path d="M275.413,72.781c0.143,-0.503 0.143,-0.575 0.143,-0.826c0,-0.647 -0.503,-0.971 -1.042,-0.971c-0.359,0 -0.933,0.216 -1.256,0.755c-0.072,0.18 -0.36,1.294 -0.503,1.939c-0.252,0.934 -0.503,1.905 -0.719,2.874l-1.616,6.464c-0.143,0.539 -1.687,3.053 -4.058,3.053c-1.832,0 -2.228,-1.58 -2.228,-2.91c0,-1.651 0.611,-3.878 1.833,-7.039c0.574,-1.472 0.717,-1.867 0.717,-2.586c0,-1.615 -1.148,-2.943 -2.943,-2.943c-3.413,0 -4.741,5.206 -4.741,5.529c0,0.36 0.358,0.36 0.43,0.36c0.359,0 0.395,-0.072 0.575,-0.647c0.97,-3.375 2.406,-4.453 3.628,-4.453c0.287,0 0.897,0 0.897,1.15c0,0.897 -0.36,1.831 -0.61,2.514c-1.437,3.806 -2.084,5.853 -2.084,7.542c0,3.195 2.262,4.273 4.383,4.273c1.4,0 2.62,-0.611 3.626,-1.615c-0.467,1.867 -0.898,3.626 -2.334,5.529c-0.934,1.222 -2.299,2.263 -3.95,2.263c-0.503,0 -2.119,-0.108 -2.73,-1.508c0.575,0 1.041,0 1.544,-0.431c0.359,-0.324 0.719,-0.791 0.719,-1.472c0,-1.114 -0.971,-1.258 -1.33,-1.258c-0.825,0 -2.011,0.575 -2.011,2.334c0,1.796 1.581,3.125 3.808,3.125c3.698,0 7.398,-3.268 8.403,-7.326l3.449,-13.719" style="fill-rule:nonzero;"/><path d="M283.023,61.764l2.557,0c0.476,0 0.801,0 0.801,-0.552c0,-0.351 -0.325,-0.351 -0.751,-0.351l-2.382,0l0.929,-3.71c0.025,-0.125 0.075,-0.25 0.075,-0.35c0,-0.451 -0.352,-0.801 -0.852,-0.801c-0.627,0 -1.003,0.425 -1.178,1.076c-0.177,0.627 0.15,-0.576 -0.953,3.785l-2.556,0c-0.477,0 -0.802,0 -0.802,0.551c0,0.352 0.3,0.352 0.752,0.352l2.381,0l-1.48,5.916c-0.15,0.626 -0.375,1.528 -0.375,1.854c-0,1.478 1.253,2.38 2.681,2.38c2.783,0 4.361,-3.508 4.361,-3.834c-0,-0.325 -0.325,-0.325 -0.4,-0.325c-0.301,0 -0.326,0.05 -0.526,0.475c-0.702,1.579 -1.982,2.982 -3.36,2.982c-0.526,0 -0.876,-0.325 -0.876,-1.228c-0,-0.25 0.1,-0.776 0.15,-1.026l1.804,-7.194" style="fill-rule:nonzero;"/><path d="M283.678,79.7c0,-0.402 -0.3,-0.953 -1.001,-0.953c-0.679,0 -1.405,0.651 -1.405,1.378c0,0.427 0.326,0.953 1.003,0.953c0.727,0 1.403,-0.702 1.403,-1.378Zm-5.112,12.731c-0.1,0.327 -0.225,0.627 -0.225,1.053c-0,1.178 1.001,2.13 2.379,2.13c2.507,0 3.61,-3.458 3.61,-3.834c-0,-0.325 -0.325,-0.325 -0.4,-0.325c-0.352,0 -0.377,0.15 -0.477,0.425c-0.576,2.006 -1.68,3.032 -2.658,3.032c-0.5,0 -0.626,-0.325 -0.626,-0.876c-0,-0.577 0.176,-1.053 0.401,-1.605c0.252,-0.676 0.527,-1.353 0.802,-2.004c0.226,-0.602 1.128,-2.883 1.228,-3.183c0.077,-0.252 0.152,-0.552 0.152,-0.802c-0,-1.178 -1.004,-2.131 -2.382,-2.131c-2.481,0 -3.634,3.409 -3.634,3.834c-0,0.327 0.35,0.327 0.427,0.327c0.35,0 0.375,-0.125 0.45,-0.402c0.651,-2.154 1.754,-3.058 2.682,-3.058c0.4,0 0.627,0.202 0.627,0.879c-0,0.576 -0.152,0.951 -0.778,2.506l-1.578,4.034" style="fill-rule:nonzero;"/><path d="M290.947,94.962c0,1.38 -0.252,2.983 -1.956,4.588c-0.1,0.1 -0.175,0.175 -0.175,0.3c0,0.177 0.2,0.352 0.351,0.352c0.35,0 2.481,-2.005 2.481,-4.988c0,-1.555 -0.601,-2.733 -1.754,-2.733c-0.827,0 -1.428,0.652 -1.428,1.43c0,0.801 0.575,1.453 1.453,1.453c0.601,0 1.003,-0.402 1.028,-0.402" style="fill-rule:nonzero;"/><path d="M306.816,90.803l-0.853,0c-0.075,0.55 -0.325,2.03 -0.652,2.28c-0.2,0.151 -2.13,0.151 -2.481,0.151l-4.611,0c2.631,-2.331 3.508,-3.032 5.012,-4.211c1.855,-1.479 3.585,-3.032 3.585,-5.414c-0,-3.032 -2.658,-4.887 -5.866,-4.887c-3.108,0 -5.212,2.181 -5.212,4.486c-0,1.278 1.076,1.404 1.328,1.404c0.601,0 1.328,-0.426 1.328,-1.329c-0,-0.45 -0.175,-1.328 -1.48,-1.328c0.778,-1.78 2.481,-2.332 3.659,-2.332c2.507,0 3.811,1.957 3.811,3.986c-0,2.18 -1.554,3.91 -2.356,4.813l-6.04,5.964c-0.25,0.226 -0.25,0.276 -0.25,0.978l10.325,0l0.753,-4.561" style="fill-rule:nonzero;"/><path d="M313.747,94.962c0,1.38 -0.252,2.983 -1.956,4.588c-0.1,0.1 -0.175,0.175 -0.175,0.3c0,0.177 0.2,0.352 0.351,0.352c0.35,0 2.481,-2.005 2.481,-4.988c0,-1.555 -0.601,-2.733 -1.754,-2.733c-0.827,0 -1.428,0.652 -1.428,1.43c0,0.801 0.575,1.453 1.453,1.453c0.601,0 1.003,-0.402 1.028,-0.402" style="fill-rule:nonzero;"/><path d="M327.961,79.7c0,-0.427 -0.327,-0.953 -1.003,-0.953c-0.727,0 -1.403,0.701 -1.403,1.378c0,0.402 0.3,0.953 1.003,0.953c0.676,0 1.403,-0.651 1.403,-1.378Zm-5.314,16.892c-0.425,1.73 -1.755,3.183 -3.233,3.183c-0.326,0 -0.626,-0.05 -0.901,-0.15c0.651,-0.302 0.851,-0.903 0.851,-1.278c0,-0.602 -0.476,-0.928 -0.978,-0.928c-0.777,0 -1.428,0.676 -1.428,1.479c0,0.952 0.978,1.579 2.481,1.579c1.503,0 4.436,-0.902 5.213,-3.96l2.256,-8.973c0.075,-0.275 0.125,-0.5 0.125,-0.877c-0,-1.378 -1.178,-2.356 -2.681,-2.356c-2.783,0 -4.386,3.484 -4.386,3.834c-0,0.327 0.35,0.327 0.426,0.327c0.3,0 0.325,-0.075 0.5,-0.452c0.627,-1.453 1.931,-3.008 3.385,-3.008c0.626,0 0.851,0.427 0.851,1.229c-0,0.276 -0.05,0.626 -0.075,0.751l-2.406,9.6" style="fill-rule:nonzero;"/></g><g><path d="M311.413,122.781c0.143,-0.503 0.143,-0.575 0.143,-0.826c0,-0.647 -0.503,-0.971 -1.042,-0.971c-0.359,0 -0.933,0.216 -1.256,0.755c-0.072,0.18 -0.36,1.294 -0.503,1.939c-0.252,0.935 -0.503,1.905 -0.719,2.874l-1.616,6.464c-0.143,0.539 -1.687,3.053 -4.057,3.053c-1.833,0 -2.229,-1.58 -2.229,-2.91c0,-1.651 0.611,-3.878 1.833,-7.039c0.574,-1.471 0.717,-1.867 0.717,-2.586c0,-1.615 -1.148,-2.943 -2.943,-2.943c-3.413,0 -4.741,5.206 -4.741,5.529c0,0.36 0.358,0.36 0.43,0.36c0.359,0 0.395,-0.072 0.575,-0.647c0.97,-3.375 2.406,-4.453 3.628,-4.453c0.287,0 0.897,0 0.897,1.15c0,0.897 -0.36,1.831 -0.61,2.514c-1.437,3.806 -2.084,5.853 -2.084,7.542c0,3.195 2.262,4.273 4.383,4.273c1.4,0 2.62,-0.61 3.626,-1.615c-0.467,1.867 -0.898,3.626 -2.334,5.53c-0.934,1.221 -2.298,2.262 -3.95,2.262c-0.503,0 -2.119,-0.108 -2.73,-1.508c0.575,0 1.041,0 1.544,-0.431c0.359,-0.323 0.719,-0.791 0.719,-1.472c0,-1.114 -0.971,-1.258 -1.33,-1.258c-0.825,0 -2.011,0.575 -2.011,2.335c0,1.795 1.581,3.125 3.808,3.125c3.698,0 7.398,-3.269 8.403,-7.327l3.449,-13.719" style="fill-rule:nonzero;"/><path d="M319.023,111.764l2.557,0c0.476,0 0.801,0 0.801,-0.551c0,-0.352 -0.325,-0.352 -0.751,-0.352l-2.382,0l0.929,-3.709c0.025,-0.125 0.075,-0.25 0.075,-0.35c0,-0.452 -0.352,-0.802 -0.852,-0.802c-0.627,0 -1.003,0.425 -1.178,1.077c-0.177,0.626 0.15,-0.577 -0.953,3.784l-2.556,0c-0.477,0 -0.802,0 -0.802,0.552c0,0.351 0.3,0.351 0.752,0.351l2.381,0l-1.48,5.916c-0.15,0.626 -0.375,1.528 -0.375,1.854c-0,1.479 1.253,2.38 2.681,2.38c2.783,0 4.361,-3.508 4.361,-3.834c-0,-0.325 -0.325,-0.325 -0.4,-0.325c-0.301,0 -0.326,0.05 -0.526,0.475c-0.702,1.579 -1.982,2.983 -3.36,2.983c-0.526,0 -0.876,-0.325 -0.876,-1.229c-0,-0.25 0.1,-0.776 0.15,-1.026l1.804,-7.194" style="fill-rule:nonzero;"/><path d="M319.678,129.6c0,-0.401 -0.3,-0.953 -1.001,-0.953c-0.679,0 -1.405,0.652 -1.405,1.378c0,0.427 0.326,0.953 1.003,0.953c0.727,0 1.403,-0.701 1.403,-1.378Zm-5.112,12.731c-0.1,0.327 -0.225,0.627 -0.225,1.053c-0,1.179 1.001,2.13 2.379,2.13c2.507,0 3.61,-3.458 3.61,-3.834c-0,-0.325 -0.325,-0.325 -0.4,-0.325c-0.352,0 -0.377,0.15 -0.477,0.425c-0.576,2.006 -1.68,3.033 -2.658,3.033c-0.5,0 -0.626,-0.325 -0.626,-0.877c-0,-0.577 0.176,-1.053 0.401,-1.605c0.252,-0.676 0.527,-1.353 0.802,-2.004c0.226,-0.602 1.128,-2.883 1.228,-3.183c0.077,-0.252 0.152,-0.552 0.152,-0.802c-0,-1.178 -1.004,-2.131 -2.382,-2.131c-2.481,0 -3.634,3.409 -3.634,3.834c-0,0.327 0.35,0.327 0.427,0.327c0.35,0 0.375,-0.125 0.45,-0.402c0.651,-2.154 1.754,-3.057 2.682,-3.057c0.4,0 0.627,0.201 0.627,0.878c-0,0.576 -0.152,0.951 -0.778,2.506l-1.578,4.034" style="fill-rule:nonzero;"/><path d="M327.047,144.863c0,1.379 -0.252,2.982 -1.956,4.587c-0.1,0.1 -0.175,0.175 -0.175,0.3c0,0.177 0.2,0.352 0.351,0.352c0.35,0 2.481,-2.005 2.481,-4.988c0,-1.555 -0.601,-2.733 -1.754,-2.733c-0.827,0 -1.428,0.652 -1.428,1.43c0,0.802 0.575,1.453 1.453,1.453c0.601,0 1.003,-0.401 1.028,-0.401" style="fill-rule:nonzero;"/><path d="M338.103,128.622c0.025,-0.05 0.1,-0.377 0.1,-0.402c0,-0.125 -0.1,-0.35 -0.401,-0.35c-0.502,0 -2.582,0.2 -3.208,0.25c-0.2,0.025 -0.552,0.05 -0.552,0.577c0,0.352 0.352,0.352 0.652,0.352c1.203,0 1.203,0.174 1.203,0.375c0,0.176 -0.05,0.326 -0.1,0.551l-3.534,14.186c-0.125,0.452 -0.125,0.502 -0.125,0.552c0,0.376 0.301,0.801 0.851,0.801c0.678,0 1.003,-0.5 1.153,-1.051c0.05,-0.1 1.128,-4.513 1.228,-4.863c1.78,0.175 3.208,0.752 3.208,2.055c0,0.125 0,0.251 -0.05,0.501c-0.1,0.377 -0.1,0.502 -0.1,0.777c0,1.78 1.455,2.581 2.658,2.581c2.431,0 3.183,-3.809 3.183,-3.834c0,-0.325 -0.327,-0.325 -0.402,-0.325c-0.35,0 -0.376,0.125 -0.501,0.601c-0.3,1.077 -0.977,2.857 -2.205,2.857c-0.677,0 -0.878,-0.627 -0.878,-1.304c0,-0.426 0,-0.476 0.151,-1.128c0.025,-0.075 0.125,-0.5 0.125,-0.776c0,-2.231 -3.007,-2.581 -4.061,-2.656c0.727,-0.452 1.655,-1.279 2.08,-1.655c1.28,-1.203 2.533,-2.381 3.936,-2.381c0.3,0 0.627,0.075 0.827,0.326c-1.078,0.175 -1.303,1.027 -1.303,1.403c0,0.552 0.426,0.928 1.003,0.928c0.676,0 1.428,-0.551 1.428,-1.604c0,-0.827 -0.602,-1.755 -1.93,-1.755c-1.428,0 -2.733,1.028 -4.011,2.206c-1.051,1.002 -1.88,1.78 -2.906,2.205l2.481,-10" style="fill-rule:nonzero;"/><path d="M351.347,144.863c0,1.379 -0.252,2.982 -1.956,4.587c-0.1,0.1 -0.175,0.175 -0.175,0.3c0,0.177 0.2,0.352 0.351,0.352c0.35,0 2.481,-2.005 2.481,-4.988c0,-1.555 -0.601,-2.733 -1.754,-2.733c-0.827,0 -1.428,0.652 -1.428,1.43c0,0.802 0.575,1.453 1.453,1.453c0.601,0 1.003,-0.401 1.028,-0.401" style="fill-rule:nonzero;"/><path d="M365.561,129.6c-0,-0.426 -0.327,-0.953 -1.003,-0.953c-0.727,0 -1.403,0.702 -1.403,1.378c-0,0.402 0.3,0.953 1.003,0.953c0.676,0 1.403,-0.651 1.403,-1.378Zm-5.314,16.892c-0.425,1.73 -1.755,3.183 -3.233,3.183c-0.326,0 -0.626,-0.05 -0.901,-0.15c0.651,-0.302 0.851,-0.903 0.851,-1.278c-0,-0.602 -0.476,-0.928 -0.978,-0.928c-0.777,0 -1.428,0.676 -1.428,1.479c-0,0.952 0.978,1.579 2.481,1.579c1.503,0 4.436,-0.902 5.213,-3.96l2.256,-8.973c0.075,-0.275 0.125,-0.5 0.125,-0.877c-0,-1.378 -1.178,-2.356 -2.681,-2.356c-2.783,0 -4.386,3.484 -4.386,3.834c-0,0.327 0.35,0.327 0.426,0.327c0.3,0 0.325,-0.075 0.5,-0.452c0.627,-1.453 1.931,-3.007 3.385,-3.007c0.626,0 0.851,0.426 0.851,1.228c-0,0.276 -0.05,0.626 -0.075,0.751l-2.406,9.6" style="fill-rule:nonzero;"/></g></g><g id="Layer4"><circle cx="279.5" cy="103.5" r="1.5"/><circle cx="283.5" cy="108.5" r="1.5"/><circle cx="287.5" cy="113.5" r="1.5"/></g><g id="Layer1"><path d="M319,172c-64.569,-24.406 -150.247,-144.945 -249.091,-122.558l0,18.558c91.4,-15.474 167.257,87.82 249.091,111l0,-7Z" style="fill:#ebebeb;"/><path d="M207,46.21c-31.506,-6.99 -34.143,3.952 -55,14l10.06,7.009c13.931,-10.941 18.718,-18.313 44.94,-13.009l0,-8Z" style="fill:#ebebeb;"/><path d="M257,80.705c-27.85,-7.185 -42.117,1.02 -65,12l10.06,8c13.931,-10.941 28.718,-16.304 54.94,-11l0,-9Z" style="fill:#ebebeb;"/><path d="M282,116.679c-18.106,-2.646 -24.185,2.813 -43,10l6.559,5c11.27,-8.703 18.596,-13.768 36.441,-11l0,-4Z" style="fill:url(#_Linear1);"/><path d="M277,107.679c-18.106,-2.646 -24.185,2.813 -43,10l6.559,5c11.27,-8.703 18.596,-13.768 36.441,-11l0,-4Z" style="fill:url(#_Linear2);"/><path d="M269,100.679c-18.106,-2.646 -24.185,2.813 -43,10l6.559,5c11.27,-8.703 18.596,-13.768 36.441,-11l0,-4Z" style="fill:url(#_Linear3);"/><path d="M294,124.799c-26.08,-3.317 -27.097,4.064 -40,15.255l4.72,4.745c8.946,-10.941 18.442,-16.304 35.28,-11l0,-9Z" style="fill:#ebebeb;"/><path d="M125,26.015c-26.3,-0.548 -34.593,13.766 -44,21l8.203,0c13.934,-8.659 20.139,-17.247 35.797,-15l0,-6Z" style="fill:#ebebeb;"/></g><g><text x="11.074px" y="181.304px" style="font-family:'ArialMT', 'Arial', sans-serif;font-size:12px;">Figure 1</text><text x="11.074px" y="193.697px" style="font-family:'ArialMT', 'Arial', sans-serif;font-size:12px;">Existing asset tree</text></g><defs><linearGradient id="_Linear1" x1="0" y1="0" x2="1" y2="0" gradientUnits="userSpaceOnUse" gradientTransform="matrix(30,-9,9,30,246,125.321)"><stop offset="0" style="stop-color:#ebebeb;stop-opacity:1"/><stop offset="1" style="stop-color:#ebebeb;stop-opacity:0"/></linearGradient><linearGradient id="_Linear2" x1="0" y1="0" x2="1" y2="0" gradientUnits="userSpaceOnUse" gradientTransform="matrix(30,-9,9,30,241,116.321)"><stop offset="0" style="stop-color:#ebebeb;stop-opacity:1"/><stop offset="1" style="stop-color:#ebebeb;stop-opacity:0"/></linearGradient><linearGradient id="_Linear3" x1="0" y1="0" x2="1" y2="0" gradientUnits="userSpaceOnUse" gradientTransform="matrix(30,-9,9,30,233,109.321)"><stop offset="0" style="stop-color:#ebebeb;stop-opacity:1"/><stop offset="1" style="stop-color:#ebebeb;stop-opacity:0"/></linearGradient></defs></svg>