<?xml version="1.0" encoding="UTF-8" standalone="no"?><!DOCTYPE svg PUBLIC "-//W3C//DTD SVG 1.1//EN" "http://www.w3.org/Graphics/SVG/1.1/DTD/svg11.dtd"><svg width="100%" height="100%" viewBox="0 0 385 197" version="1.1" xmlns="http://www.w3.org/2000/svg" xmlns:xlink="http://www.w3.org/1999/xlink" xml:space="preserve" xmlns:serif="http://www.serif.com/" style="fill-rule:evenodd;clip-rule:evenodd;stroke-miterlimit:10;"><g id="Layer1"><path d="M319,154c-64.569,-24.406 -150.247,-144.945 -249.091,-122.558l0,12.558c73.708,-25.477 146.146,79.529 249.091,117l0,-7Z" style="fill:#ebebeb;"/><path d="M251,50.029c-32.875,-1.043 -43.241,26.202 -55,39.971l10.254,0c17.417,-16.483 25.173,-32.827 44.746,-28.551l0,-11.42Z" style="fill:#ebebeb;"/><g><path d="M356.269,187.521l0,-0Z" style="fill:none;fill-rule:nonzero;stroke:#000;stroke-opacity:0;stroke-width:0.1px;"/><path d="M324.431,159.519c0,0.719 -0.072,1.186 -0.287,2.334c-0.072,0.432 -0.108,0.539 -0.144,0.791c0.539,0.288 1.113,0.431 1.544,0.431c1.186,0 2.586,-1.042 3.7,-2.729l2.729,-4.202l0.394,2.478c0.467,3.052 1.294,4.453 2.586,4.453c0.791,0 1.941,-0.611 3.089,-1.651l1.76,-1.582l-0.324,-0.682c-1.292,1.078 -2.191,1.617 -2.764,1.617c-0.539,0 -1.006,-0.36 -1.366,-1.078c-0.323,-0.682 -0.718,-2.011 -0.896,-3.052l-0.647,-3.628l1.256,-1.759c1.689,-2.335 2.658,-3.161 3.772,-3.161c0.573,0 1.004,0.287 1.184,0.826l0.503,-0.143l0.539,-3.054c-0.431,-0.251 -0.754,-0.359 -1.078,-0.359c-1.436,0 -2.873,1.294 -5.1,4.597l-1.328,1.975l-0.215,-1.724c-0.432,-3.554 -1.4,-4.848 -3.521,-4.848c-0.933,0 -1.723,0.288 -2.047,0.755l-2.082,2.981l0.61,0.358c1.077,-1.221 1.796,-1.724 2.479,-1.724c1.184,0 1.975,1.474 2.586,4.993l0.395,2.226l-1.438,2.227c-1.543,2.406 -2.765,3.556 -3.77,3.556c-0.539,0 -0.934,-0.144 -1.006,-0.324l-0.396,-1.006l-0.717,0.108" style="fill-rule:nonzero;"/><path d="M346.177,137.271l-1.524,7.698c-0.026,0.191 -0.055,0.245 -0.136,0.572c-0.162,0.761 -0.217,1.169 -0.217,1.495c0,0.681 0.298,1.089 0.816,1.089c0.953,-0 1.904,-0.545 4.026,-2.258l0.408,-0.326l0.436,-0.355l-0.272,-0.489l-1.225,0.844c-0.789,0.544 -1.333,0.816 -1.633,0.816c-0.244,-0 -0.379,-0.218 -0.379,-0.544c0,-0.708 0.379,-2.911 1.168,-6.855l0.355,-1.687l2.911,-0l0.298,-1.36c-1.032,0.108 -1.957,0.163 -2.992,0.163c0.436,-2.557 0.735,-3.891 1.224,-5.36l-0.299,-0.407c-0.544,0.326 -1.278,0.653 -2.122,0.979l-0.679,4.625c-1.197,0.571 -1.905,0.871 -2.394,1.006l-0.055,0.354l2.285,-0" style="fill-rule:nonzero;"/><path d="M364.103,141.342l7.93,0c0.398,0 0.939,0 0.939,-0.568c0,-0.569 -0.541,-0.569 -0.939,-0.569l-7.93,0l0,-7.959c0,-0.399 0,-0.938 -0.569,-0.938c-0.568,0 -0.568,0.539 -0.568,0.938l0,7.959l-7.96,0c-0.398,0 -0.937,0 -0.937,0.569c0,0.568 0.539,0.568 0.937,0.568l7.96,0l0,7.96c0,0.397 0,0.937 0.568,0.937c0.569,0 0.569,-0.54 0.569,-0.937l0,-7.96" style="fill-rule:nonzero;"/><path d="M376.698,132.782l0.274,0l3.508,-1.577c0.028,-0.028 0.054,-0.028 0.082,-0.028c0.163,0 0.218,0.245 0.218,0.898l-0,13.194c-0,1.414 -0.3,1.713 -1.769,1.795l-1.524,0.082l-0,0.815c4.19,-0.081 4.19,-0.081 4.49,-0.081c0.353,0 0.951,0 1.876,0.027c0.327,0.028 1.28,0.028 2.394,0.054l-0,-0.815l-1.414,-0.082c-1.496,-0.082 -1.769,-0.381 -1.769,-1.795l-0,-16.131l-0.38,-0.138c-1.768,0.925 -3.7,1.742 -6.175,2.613l0.189,1.169" style="fill-rule:nonzero;"/><path d="M343.102,165.225l0.19,0.544l0.87,-0.57c1.007,-0.627 1.088,-0.682 1.279,-0.682c0.271,0 0.49,0.272 0.49,0.627c-0,0.191 -0.109,0.816 -0.219,1.197l-1.795,6.528c-0.217,0.844 -0.353,1.578 -0.353,2.095c-0,0.653 0.298,1.061 0.816,1.061c0.707,0 1.687,-0.572 4.353,-2.558l-0.272,-0.489l-0.708,0.463c-0.789,0.517 -1.414,0.816 -1.659,0.816c-0.191,0 -0.353,-0.272 -0.353,-0.544c-0,-0.272 0.054,-0.517 0.19,-1.089l2.094,-8.269c0.109,-0.463 0.164,-0.763 0.164,-0.98c-0,-0.462 -0.245,-0.708 -0.681,-0.708c-0.599,0 -1.605,0.572 -3.646,2.015l-0.76,0.543Zm5.276,-8.814c-0.787,-0 -1.576,0.899 -1.576,1.824c0,0.679 0.407,1.114 1.06,1.114c0.843,-0 1.496,-0.789 1.496,-1.822c0,-0.653 -0.408,-1.116 -0.98,-1.116" style="fill-rule:nonzero;"/><path d="M355.827,172.435c-0.735,0.243 -1.225,0.407 -2.668,0.815c-0.189,2.067 -0.87,3.836 -2.447,6.447l0.38,0.3l1.116,-0.517c2.203,-2.856 3.237,-4.57 3.998,-6.666l-0.379,-0.379" style="fill-rule:nonzero;"/><path d="M363.842,156.139l-0.326,-0.3c-1.414,0.708 -2.394,0.953 -4.354,1.144l-0.107,0.57l1.304,0c0.653,0 0.925,0.191 0.925,0.654c0,0.217 -0.026,0.462 -0.053,0.653l-1.306,7.29c-0.381,2.041 -0.816,3.917 -2.231,9.603l0.245,0.272l1.822,-0.462l0.626,-3.374c0.246,-1.306 0.897,-2.529 1.822,-3.454c1.878,5.44 2.749,7.29 3.428,7.29c0.354,0 1.007,-0.354 2.204,-1.197l1.251,-0.87l-0.217,-0.517l-1.17,0.653c-0.382,0.217 -0.571,0.272 -0.789,0.272c-0.272,0 -0.463,-0.164 -0.707,-0.627c-0.953,-1.74 -1.551,-3.209 -2.612,-6.556l0.381,-0.38c1.659,-1.659 2.911,-2.34 4.27,-2.34c0.219,0 0.518,0.054 0.98,0.164l0.463,-1.714c-0.489,-0.163 -0.98,-0.246 -1.307,-0.246c-1.795,0 -4.053,2.096 -7.453,6.857l2.911,-13.385" style="fill-rule:nonzero;"/><path d="M375.627,172.435c-0.735,0.243 -1.225,0.407 -2.668,0.815c-0.189,2.067 -0.87,3.836 -2.447,6.447l0.38,0.3l1.116,-0.517c2.203,-2.856 3.237,-4.57 3.998,-6.666l-0.379,-0.379" style="fill-rule:nonzero;"/><path d="M376.272,183.097c0.272,0.136 0.626,0.191 1.034,0.191c1.088,0 2.177,-1.169 3.155,-3.374c0.545,-1.223 0.925,-2.584 1.687,-6.039l2.068,-9.52c0.109,-0.491 0.162,-0.844 0.162,-1.006c0,-0.436 -0.244,-0.682 -0.68,-0.682c-0.598,0 -1.604,0.572 -3.645,2.015l-0.761,0.543l0.191,0.544l0.87,-0.57c1.006,-0.627 1.088,-0.682 1.278,-0.682c0.272,0 0.489,0.272 0.489,0.627c0,0.108 -0.053,0.463 -0.136,0.761c-0.026,0.164 -0.053,0.272 -0.053,0.327l-2.72,13.465c-0.3,1.414 -0.789,2.367 -1.28,2.367c-0.379,0 -0.87,-0.164 -1.44,-0.517l-0.219,1.55Zm8.134,-26.686c-0.789,-0 -1.578,0.899 -1.578,1.824c0,0.679 0.408,1.114 1.061,1.114c0.844,-0 1.497,-0.789 1.497,-1.822c0,-0.653 -0.409,-1.116 -0.98,-1.116" style="fill-rule:nonzero;"/></g><g><path d="M3.431,36.312c0,0.719 -0.072,1.186 -0.287,2.334c-0.072,0.432 -0.108,0.539 -0.144,0.791c0.539,0.288 1.113,0.431 1.544,0.431c1.186,0 2.586,-1.042 3.7,-2.729l2.729,-4.202l0.394,2.478c0.467,3.052 1.294,4.453 2.586,4.453c0.791,0 1.941,-0.611 3.089,-1.651l1.76,-1.582l-0.324,-0.682c-1.292,1.078 -2.191,1.617 -2.764,1.617c-0.539,0 -1.006,-0.36 -1.366,-1.078c-0.323,-0.682 -0.718,-2.011 -0.896,-3.052l-0.647,-3.628l1.256,-1.759c1.689,-2.335 2.658,-3.161 3.772,-3.161c0.573,0 1.004,0.287 1.184,0.826l0.503,-0.143l0.539,-3.054c-0.431,-0.251 -0.754,-0.359 -1.078,-0.359c-1.436,0 -2.873,1.294 -5.1,4.597l-1.328,1.975l-0.216,-1.724c-0.431,-3.554 -1.4,-4.848 -3.52,-4.848c-0.933,0 -1.723,0.288 -2.047,0.755l-2.082,2.981l0.61,0.358c1.077,-1.221 1.796,-1.724 2.479,-1.724c1.184,0 1.975,1.474 2.585,4.993l0.396,2.226l-1.438,2.227c-1.543,2.406 -2.765,3.556 -3.77,3.556c-0.539,0 -0.934,-0.144 -1.006,-0.324l-0.396,-1.006l-0.717,0.108" style="fill-rule:nonzero;"/><path d="M25.077,13.964l-1.524,7.698c-0.026,0.191 -0.055,0.245 -0.136,0.572c-0.162,0.761 -0.217,1.169 -0.217,1.495c0,0.681 0.298,1.089 0.816,1.089c0.953,0 1.904,-0.545 4.026,-2.258l0.408,-0.326l0.436,-0.355l-0.272,-0.489l-1.225,0.844c-0.789,0.544 -1.333,0.816 -1.633,0.816c-0.244,0 -0.379,-0.218 -0.379,-0.544c0,-0.708 0.379,-2.911 1.168,-6.855l0.355,-1.687l2.911,0l0.298,-1.36c-1.032,0.108 -1.957,0.163 -2.992,0.163c0.436,-2.557 0.735,-3.891 1.224,-5.36l-0.299,-0.407c-0.544,0.326 -1.278,0.653 -2.122,0.979l-0.679,4.625c-1.197,0.571 -1.905,0.871 -2.394,1.006l-0.055,0.354l2.285,0" style="fill-rule:nonzero;"/><path d="M22.102,39.918l0.19,0.544l0.87,-0.57c1.007,-0.627 1.088,-0.682 1.279,-0.682c0.271,0 0.49,0.272 0.49,0.627c0,0.191 -0.109,0.816 -0.219,1.197l-1.795,6.528c-0.217,0.844 -0.353,1.578 -0.353,2.095c0,0.653 0.298,1.061 0.816,1.061c0.707,0 1.687,-0.572 4.353,-2.558l-0.272,-0.489l-0.708,0.463c-0.789,0.517 -1.414,0.816 -1.659,0.816c-0.191,0 -0.353,-0.272 -0.353,-0.544c0,-0.272 0.054,-0.517 0.19,-1.089l2.094,-8.269c0.109,-0.463 0.164,-0.763 0.164,-0.98c0,-0.462 -0.245,-0.708 -0.681,-0.708c-0.599,0 -1.605,0.572 -3.646,2.015l-0.76,0.543Zm5.276,-8.814c-0.787,-0 -1.576,0.899 -1.576,1.824c0,0.679 0.407,1.114 1.06,1.114c0.843,-0 1.496,-0.789 1.496,-1.822c0,-0.653 -0.408,-1.116 -0.98,-1.116" style="fill-rule:nonzero;"/><path d="M34.827,47.128c-0.735,0.243 -1.225,0.407 -2.668,0.815c-0.189,2.067 -0.87,3.836 -2.447,6.447l0.38,0.3l1.116,-0.517c2.203,-2.856 3.237,-4.57 3.998,-6.666l-0.379,-0.379" style="fill-rule:nonzero;"/><path d="M42.842,30.832l-0.326,-0.3c-1.414,0.708 -2.394,0.953 -4.354,1.144l-0.107,0.57l1.304,-0c0.653,-0 0.925,0.191 0.925,0.654c0,0.217 -0.026,0.462 -0.053,0.653l-1.306,7.29c-0.381,2.041 -0.816,3.917 -2.231,9.603l0.245,0.272l1.822,-0.462l0.626,-3.374c0.246,-1.306 0.897,-2.529 1.822,-3.454c1.878,5.44 2.749,7.29 3.428,7.29c0.354,-0 1.007,-0.354 2.204,-1.197l1.251,-0.87l-0.217,-0.517l-1.17,0.653c-0.382,0.217 -0.571,0.272 -0.789,0.272c-0.272,-0 -0.463,-0.164 -0.707,-0.627c-0.953,-1.74 -1.551,-3.209 -2.612,-6.556l0.381,-0.38c1.659,-1.659 2.911,-2.34 4.27,-2.34c0.219,-0 0.518,0.054 0.98,0.164l0.463,-1.714c-0.489,-0.163 -0.98,-0.246 -1.307,-0.246c-1.795,-0 -4.053,2.096 -7.453,6.857l2.911,-13.385" style="fill-rule:nonzero;"/><path d="M54.527,47.128c-0.735,0.243 -1.225,0.407 -2.668,0.815c-0.189,2.067 -0.87,3.836 -2.447,6.447l0.38,0.3l1.116,-0.517c2.203,-2.856 3.237,-4.57 3.998,-6.666l-0.379,-0.379" style="fill-rule:nonzero;"/><path d="M55.272,57.79c0.272,0.136 0.626,0.191 1.034,0.191c1.088,0 2.177,-1.169 3.155,-3.374c0.545,-1.223 0.925,-2.584 1.687,-6.039l2.068,-9.52c0.109,-0.491 0.162,-0.844 0.162,-1.006c0,-0.436 -0.244,-0.682 -0.68,-0.682c-0.598,0 -1.604,0.572 -3.645,2.015l-0.761,0.543l0.191,0.544l0.87,-0.57c1.006,-0.627 1.088,-0.682 1.278,-0.682c0.272,0 0.489,0.272 0.489,0.627c0,0.108 -0.053,0.463 -0.136,0.761c-0.026,0.164 -0.053,0.272 -0.053,0.327l-2.72,13.465c-0.3,1.414 -0.789,2.367 -1.28,2.367c-0.379,0 -0.87,-0.164 -1.44,-0.517l-0.219,1.55Zm8.134,-26.686c-0.789,0 -1.578,0.899 -1.578,1.824c0,0.679 0.408,1.114 1.061,1.114c0.844,0 1.497,-0.789 1.497,-1.822c0,-0.653 -0.409,-1.116 -0.98,-1.116" style="fill-rule:nonzero;"/></g><g><path d="M268.169,46.181l0.395,0.683c0.324,-0.216 0.647,-0.323 0.969,-0.323c0.97,-0 1.545,0.826 1.545,2.262c0,5.316 -3.484,11.17 -6.644,11.17c-1.761,-0 -2.873,-1.509 -2.873,-3.843c0,-3.771 1.4,-7.039 4.92,-11.421l-0.359,-0.646c-0.719,0.323 -1.186,0.431 -2.191,0.431c-1.006,-0 -2.514,-0.072 -3.556,-0.18l-0.431,-0.036c-0.214,-0.036 -0.394,-0.036 -0.43,-0.036c-0.431,-0 -0.755,0.072 -1.15,0.252c-0.503,0.97 -0.898,2.262 -1.364,4.237l0.789,-0l0.611,-1.508c0.252,-0.61 0.97,-1.006 1.831,-1.006c0.18,-0 0.503,-0 0.971,0.036c0.287,0.036 0.539,0.036 1.006,0.036c0.753,-0 1.328,-0.036 2.262,-0.144c-3.987,4.311 -5.495,7.291 -5.495,10.883c0,2.766 1.652,4.741 3.95,4.741c1.509,-0 2.873,-0.647 4.525,-2.119c1.689,-1.545 3.413,-3.952 4.525,-6.43c0.791,-1.795 1.402,-4.201 1.402,-5.637c0,-2.047 -0.935,-3.52 -2.227,-3.52c-0.467,-0 -0.898,0.143 -1.186,0.431l-1.795,1.687" style="fill-rule:nonzero;"/><path d="M278.345,35.964l-1.523,7.699c-0.027,0.19 -0.055,0.245 -0.136,0.571c-0.163,0.761 -0.217,1.169 -0.217,1.496c0,0.681 0.298,1.089 0.815,1.089c0.954,0 1.905,-0.546 4.027,-2.258l0.408,-0.327l0.436,-0.354l-0.272,-0.489l-1.225,0.843c-0.789,0.544 -1.333,0.816 -1.633,0.816c-0.244,0 -0.38,-0.217 -0.38,-0.544c0,-0.708 0.38,-2.911 1.169,-6.855l0.355,-1.687l2.911,0l0.298,-1.359c-1.033,0.108 -1.958,0.162 -2.992,0.162c0.436,-2.556 0.734,-3.89 1.223,-5.359l-0.298,-0.408c-0.544,0.327 -1.278,0.653 -2.122,0.98l-0.68,4.625c-1.196,0.57 -1.904,0.87 -2.393,1.006l-0.055,0.353l2.284,0" style="fill-rule:nonzero;"/><path d="M275.67,61.819l0.191,0.544l0.87,-0.571c1.007,-0.626 1.088,-0.681 1.278,-0.681c0.272,0 0.491,0.272 0.491,0.627c0,0.19 -0.109,0.815 -0.219,1.196l-1.795,6.529c-0.217,0.843 -0.353,1.578 -0.353,2.095c0,0.653 0.298,1.061 0.815,1.061c0.708,0 1.688,-0.572 4.354,-2.558l-0.272,-0.489l-0.708,0.462c-0.789,0.518 -1.414,0.816 -1.659,0.816c-0.191,0 -0.354,-0.272 -0.354,-0.544c0,-0.272 0.055,-0.517 0.191,-1.089l2.094,-8.269c0.109,-0.462 0.164,-0.762 0.164,-0.979c0,-0.463 -0.245,-0.708 -0.681,-0.708c-0.599,0 -1.605,0.572 -3.646,2.014l-0.761,0.544Zm5.277,-8.814c-0.788,0 -1.577,0.898 -1.577,1.823c0,0.68 0.408,1.114 1.061,1.114c0.842,0 1.496,-0.789 1.496,-1.822c0,-0.653 -0.408,-1.115 -0.98,-1.115" style="fill-rule:nonzero;"/><path d="M288.395,69.028c-0.734,0.244 -1.225,0.408 -2.667,0.816c-0.189,2.067 -0.87,3.836 -2.447,6.447l0.38,0.3l1.116,-0.518c2.203,-2.856 3.237,-4.57 3.998,-6.665l-0.38,-0.38" style="fill-rule:nonzero;"/><path d="M296.411,52.733l-0.327,-0.3c-1.414,0.708 -2.393,0.953 -4.353,1.143l-0.108,0.571l1.305,-0c0.653,-0 0.925,0.19 0.925,0.653c0,0.217 -0.026,0.462 -0.053,0.653l-1.306,7.291c-0.381,2.04 -0.816,3.917 -2.231,9.603l0.245,0.272l1.822,-0.463l0.626,-3.373c0.246,-1.307 0.897,-2.53 1.822,-3.455c1.878,5.441 2.749,7.291 3.428,7.291c0.353,0 1.007,-0.355 2.203,-1.197l1.252,-0.87l-0.217,-0.518l-1.171,0.653c-0.381,0.218 -0.57,0.272 -0.789,0.272c-0.271,0 -0.462,-0.164 -0.706,-0.626c-0.953,-1.741 -1.551,-3.21 -2.612,-6.557l0.381,-0.379c1.659,-1.66 2.911,-2.341 4.27,-2.341c0.219,0 0.517,0.055 0.98,0.164l0.462,-1.714c-0.489,-0.162 -0.979,-0.245 -1.306,-0.245c-1.795,0 -4.053,2.095 -7.453,6.856l2.911,-13.384" style="fill-rule:nonzero;"/><path d="M308.095,69.028c-0.734,0.244 -1.225,0.408 -2.667,0.816c-0.189,2.067 -0.87,3.836 -2.447,6.447l0.38,0.3l1.116,-0.518c2.203,-2.856 3.237,-4.57 3.998,-6.665l-0.38,-0.38" style="fill-rule:nonzero;"/><path d="M308.841,79.691c0.272,0.136 0.626,0.19 1.034,0.19c1.088,0 2.177,-1.169 3.155,-3.373c0.545,-1.224 0.925,-2.585 1.687,-6.039l2.067,-9.521c0.11,-0.49 0.163,-0.843 0.163,-1.006c0,-0.436 -0.244,-0.681 -0.68,-0.681c-0.598,0 -1.604,0.572 -3.645,2.014l-0.761,0.544l0.191,0.544l0.87,-0.571c1.006,-0.626 1.087,-0.681 1.278,-0.681c0.272,0 0.489,0.272 0.489,0.627c0,0.107 -0.053,0.462 -0.136,0.76c-0.026,0.165 -0.053,0.272 -0.053,0.327l-2.72,13.466c-0.3,1.414 -0.789,2.367 -1.28,2.367c-0.38,0 -0.87,-0.164 -1.441,-0.517l-0.218,1.55Zm8.134,-26.686c-0.789,0 -1.578,0.898 -1.578,1.823c0,0.68 0.408,1.114 1.061,1.114c0.844,0 1.497,-0.789 1.497,-1.822c0,-0.653 -0.41,-1.115 -0.98,-1.115" style="fill-rule:nonzero;"/></g><g transform="matrix(1,0,0,1,8.01195,-21.3041)"><text x="11.074px" y="181.304px" style="font-family:'ArialMT', 'Arial', sans-serif;font-size:12px;">Figure 3</text><text x="11.074px" y="193.697px" style="font-family:'ArialMT', 'Arial', sans-serif;font-size:12px;">New asset tree</text></g></g></svg>