<?xml version="1.0" encoding="UTF-8" standalone="no"?><!DOCTYPE svg PUBLIC "-//W3C//DTD SVG 1.1//EN" "http://www.w3.org/Graphics/SVG/1.1/DTD/svg11.dtd"><svg width="100%" height="100%" viewBox="0 0 385 197" version="1.1" xmlns="http://www.w3.org/2000/svg" xmlns:xlink="http://www.w3.org/1999/xlink" xml:space="preserve" xmlns:serif="http://www.serif.com/" style="fill-rule:evenodd;clip-rule:evenodd;stroke-miterlimit:10;"><g id="Layer3"><g><path d="M286.979,23l0,0Z" style="fill:none;fill-rule:nonzero;stroke:#000;stroke-opacity:0;stroke-width:0.1px;"/><path d="M255,40.915l20.837,0" style="fill:none;fill-rule:nonzero;stroke:#000;stroke-width:1.43px;"/><path d="M267.391,59.789c-0.252,0.862 -0.396,1.833 -0.396,2.37c0,0.899 0.396,1.438 1.078,1.438c0.933,0 2.227,-0.755 5.746,-3.377l-0.358,-0.645l-0.934,0.609c-0.863,0.575 -1.796,0.97 -2.191,0.97c-0.288,0 -0.467,-0.251 -0.467,-0.611c0,-0.287 0.072,-0.682 0.179,-1.22l0.036,-0.215c0.827,-3.916 1.939,-8.693 3.018,-12.823l-0.252,-0.323l-2.442,0.611l-0.36,1.831c-0.539,2.802 -1.435,5.244 -2.55,6.932c-2.118,3.268 -4.92,5.818 -6.356,5.818c-0.287,0 -0.467,-0.323 -0.467,-0.934c0,-0.503 0.072,-0.969 0.252,-1.867l2.046,-9.733c0.108,-0.575 0.18,-1.077 0.18,-1.544c0,-0.683 -0.323,-1.114 -0.826,-1.114c-0.719,0 -2.083,0.755 -4.741,2.658l-1.005,0.719l0.25,0.717l1.15,-0.753c1.007,-0.647 1.4,-0.827 1.724,-0.827c0.323,0 0.611,0.324 0.611,0.719c0,0.144 -0.036,0.503 -0.072,0.647l-2.263,10.666c-0.072,0.323 -0.143,1.185 -0.143,1.687c0,0.827 0.539,1.473 1.256,1.473c2.264,0 6.609,-4.021 9.625,-8.978l-1.328,5.099" style="fill-rule:nonzero;"/><path d="M279.531,37.864l-1.523,7.698c-0.027,0.191 -0.055,0.245 -0.136,0.572c-0.163,0.761 -0.217,1.169 -0.217,1.495c0,0.682 0.298,1.089 0.815,1.089c0.953,-0 1.905,-0.545 4.027,-2.258l0.408,-0.326l0.436,-0.355l-0.272,-0.489l-1.225,0.844c-0.789,0.544 -1.333,0.816 -1.633,0.816c-0.244,-0 -0.38,-0.218 -0.38,-0.544c0,-0.708 0.38,-2.911 1.169,-6.855l0.355,-1.687l2.911,-0l0.298,-1.36c-1.033,0.108 -1.958,0.163 -2.992,0.163c0.436,-2.557 0.734,-3.891 1.223,-5.36l-0.298,-0.407c-0.544,0.326 -1.278,0.653 -2.122,0.979l-0.68,4.625c-1.197,0.571 -1.904,0.871 -2.393,1.006l-0.055,0.354l2.284,-0" style="fill-rule:nonzero;"/><path d="M276.956,63.718l0.191,0.544l0.87,-0.57c1.006,-0.627 1.088,-0.681 1.278,-0.681c0.272,0 0.491,0.272 0.491,0.626c0,0.191 -0.109,0.816 -0.219,1.197l-1.795,6.528c-0.217,0.844 -0.353,1.578 -0.353,2.096c0,0.653 0.298,1.06 0.815,1.06c0.708,0 1.688,-0.571 4.354,-2.557l-0.272,-0.489l-0.708,0.462c-0.789,0.517 -1.414,0.816 -1.66,0.816c-0.19,0 -0.353,-0.272 -0.353,-0.544c0,-0.272 0.055,-0.517 0.191,-1.089l2.094,-8.269c0.109,-0.462 0.164,-0.762 0.164,-0.98c0,-0.462 -0.246,-0.707 -0.681,-0.707c-0.599,0 -1.605,0.572 -3.646,2.014l-0.761,0.543Zm5.277,-8.814c-0.788,-0 -1.577,0.899 -1.577,1.824c0,0.68 0.408,1.114 1.061,1.114c0.842,-0 1.496,-0.789 1.496,-1.822c0,-0.653 -0.408,-1.116 -0.98,-1.116" style="fill-rule:nonzero;"/><path d="M289.681,70.928c-0.734,0.244 -1.225,0.408 -2.667,0.815c-0.189,2.068 -0.87,3.836 -2.447,6.447l0.38,0.3l1.116,-0.517c2.203,-2.856 3.237,-4.57 3.998,-6.665l-0.38,-0.38" style="fill-rule:nonzero;"/><path d="M297.597,54.633l-0.327,-0.3c-1.414,0.707 -2.393,0.953 -4.353,1.143l-0.108,0.571l1.305,0c0.653,0 0.925,0.19 0.925,0.653c0,0.217 -0.026,0.462 -0.053,0.653l-1.306,7.29c-0.382,2.041 -0.816,3.918 -2.232,9.604l0.246,0.271l1.822,-0.462l0.626,-3.373c0.246,-1.307 0.897,-2.53 1.822,-3.455c1.878,5.44 2.749,7.29 3.428,7.29c0.353,0 1.006,-0.354 2.203,-1.196l1.252,-0.871l-0.217,-0.517l-1.171,0.653c-0.381,0.217 -0.57,0.272 -0.789,0.272c-0.272,0 -0.462,-0.164 -0.706,-0.626c-0.953,-1.741 -1.551,-3.21 -2.612,-6.557l0.381,-0.379c1.659,-1.66 2.911,-2.341 4.27,-2.341c0.219,0 0.517,0.055 0.98,0.164l0.462,-1.714c-0.489,-0.163 -0.979,-0.245 -1.306,-0.245c-1.795,0 -4.053,2.095 -7.453,6.856l2.911,-13.384" style="fill-rule:nonzero;"/><path d="M309.381,70.928c-0.734,0.244 -1.225,0.408 -2.667,0.815c-0.189,2.068 -0.87,3.836 -2.447,6.447l0.38,0.3l1.116,-0.517c2.203,-2.856 3.237,-4.57 3.998,-6.665l-0.38,-0.38" style="fill-rule:nonzero;"/><path d="M310.027,81.59c0.271,0.136 0.626,0.191 1.034,0.191c1.087,0 2.177,-1.169 3.155,-3.373c0.545,-1.224 0.925,-2.585 1.687,-6.04l2.067,-9.52c0.11,-0.49 0.163,-0.844 0.163,-1.006c0,-0.436 -0.244,-0.681 -0.68,-0.681c-0.598,0 -1.605,0.572 -3.645,2.014l-0.761,0.543l0.191,0.544l0.87,-0.57c1.006,-0.627 1.087,-0.681 1.278,-0.681c0.272,0 0.489,0.272 0.489,0.626c0,0.108 -0.053,0.463 -0.136,0.761c-0.026,0.164 -0.053,0.272 -0.053,0.327l-2.72,13.465c-0.3,1.414 -0.789,2.368 -1.28,2.368c-0.38,0 -0.87,-0.165 -1.441,-0.518l-0.218,1.55Zm8.134,-26.686c-0.789,0 -1.578,0.899 -1.578,1.824c0,0.68 0.408,1.114 1.061,1.114c0.844,0 1.497,-0.789 1.497,-1.822c0,-0.653 -0.41,-1.116 -0.98,-1.116" style="fill-rule:nonzero;"/></g><g><path d="M324,170.025l0.323,0.971c1.041,-0.827 2.011,-1.15 3.269,-1.15c0.897,0 1.903,0.179 3.771,0.611c2.154,0.539 3.268,0.718 4.237,0.718c0.431,0 0.755,-0.072 1.795,-0.359c0.396,-2.227 0.683,-3.449 1.078,-5.136l-0.79,0l-0.789,2.155c-0.216,0.647 -0.647,0.898 -1.402,0.898c-0.431,0 -1.004,-0.072 -1.759,-0.251l-0.647,-0.144c-1.184,-0.252 -2.406,-0.431 -3.088,-0.431c-1.15,0 -2.12,0.215 -3.412,0.754l12.175,-13.719l0.216,-1.15l-0.324,-0.323l-0.826,0.827c-0.36,0.359 -0.718,0.503 -1.221,0.503c-1.222,0 -3.089,-0.288 -4.812,-0.755l-0.647,-0.18c-1.006,-0.251 -1.724,-0.395 -2.227,-0.395c-0.611,0 -1.328,0.108 -2.19,0.359l-1.15,4.382l0.754,0l1.078,-2.083c0.61,-0.144 0.933,-0.18 1.4,-0.18c0.504,0 0.899,0.036 1.616,0.18c1.222,0.251 2.155,0.359 2.91,0.359c1.293,0 2.154,-0.215 3.34,-0.826l-12.678,14.365" style="fill-rule:nonzero;"/><path d="M344.136,145.271l-1.523,7.698c-0.027,0.191 -0.055,0.245 -0.136,0.572c-0.163,0.761 -0.218,1.169 -0.218,1.495c0,0.681 0.299,1.089 0.816,1.089c0.953,-0 1.905,-0.545 4.027,-2.258l0.407,-0.326l0.436,-0.355l-0.272,-0.489l-1.225,0.844c-0.789,0.544 -1.332,0.816 -1.632,0.816c-0.244,-0 -0.38,-0.218 -0.38,-0.544c0,-0.708 0.38,-2.911 1.169,-6.855l0.354,-1.687l2.911,-0l0.299,-1.36c-1.033,0.108 -1.958,0.163 -2.992,0.163c0.436,-2.557 0.734,-3.891 1.223,-5.36l-0.298,-0.407c-0.544,0.326 -1.279,0.653 -2.122,0.979l-0.68,4.625c-1.197,0.571 -1.905,0.871 -2.394,1.006l-0.054,0.354l2.284,-0" style="fill-rule:nonzero;"/><path d="M362.163,149.342l7.929,0c0.399,0 0.939,0 0.939,-0.568c0,-0.569 -0.54,-0.569 -0.939,-0.569l-7.929,0l0,-7.959c0,-0.399 0,-0.938 -0.569,-0.938c-0.569,0 -0.569,0.539 -0.569,0.938l0,7.959l-7.959,0c-0.399,0 -0.938,0 -0.938,0.569c0,0.568 0.539,0.568 0.938,0.568l7.959,0l0,7.96c0,0.397 0,0.937 0.569,0.937c0.569,0 0.569,-0.54 0.569,-0.937l0,-7.96" style="fill-rule:nonzero;"/><path d="M374.758,140.782l0.273,0l3.508,-1.577c0.028,-0.028 0.055,-0.028 0.083,-0.028c0.162,0 0.217,0.245 0.217,0.898l0,13.194c0,1.414 -0.3,1.713 -1.769,1.795l-1.523,0.082l0,0.815c4.189,-0.081 4.189,-0.081 4.489,-0.081c0.353,0 0.952,0 1.877,0.027c0.326,0.028 1.279,0.028 2.393,0.054l0,-0.815l-1.414,-0.082c-1.495,-0.082 -1.769,-0.381 -1.769,-1.795l0,-16.131l-0.379,-0.138c-1.769,0.925 -3.7,1.742 -6.175,2.613l0.189,1.169" style="fill-rule:nonzero;"/><path d="M341.461,173.325l0.191,0.544l0.87,-0.57c1.006,-0.627 1.087,-0.682 1.278,-0.682c0.272,-0 0.491,0.272 0.491,0.627c0,0.191 -0.11,0.816 -0.219,1.197l-1.795,6.528c-0.218,0.844 -0.354,1.578 -0.354,2.095c0,0.653 0.299,1.061 0.816,1.061c0.708,-0 1.688,-0.572 4.353,-2.558l-0.272,-0.489l-0.707,0.463c-0.79,0.517 -1.415,0.816 -1.66,0.816c-0.19,-0 -0.353,-0.272 -0.353,-0.544c0,-0.272 0.055,-0.517 0.191,-1.089l2.093,-8.269c0.11,-0.463 0.164,-0.763 0.164,-0.98c0,-0.462 -0.245,-0.708 -0.681,-0.708c-0.598,-0 -1.604,0.572 -3.645,2.015l-0.761,0.543Zm5.277,-8.814c-0.788,-0 -1.577,0.899 -1.577,1.824c0,0.679 0.408,1.114 1.061,1.114c0.842,-0 1.495,-0.789 1.495,-1.822c0,-0.653 -0.408,-1.116 -0.979,-1.116" style="fill-rule:nonzero;"/><path d="M354.186,180.535c-0.734,0.243 -1.225,0.407 -2.667,0.815c-0.189,2.067 -0.871,3.836 -2.447,6.447l0.38,0.3l1.115,-0.517c2.203,-2.856 3.238,-4.57 3.999,-6.666l-0.38,-0.379" style="fill-rule:nonzero;"/><path d="M362.202,164.239l-0.327,-0.3c-1.414,0.708 -2.394,0.953 -4.353,1.144l-0.108,0.57l1.305,0c0.653,0 0.925,0.191 0.925,0.654c0,0.217 -0.027,0.462 -0.053,0.653l-1.307,7.29c-0.381,2.041 -0.815,3.917 -2.231,9.603l0.245,0.272l1.822,-0.462l0.627,-3.374c0.245,-1.306 0.897,-2.529 1.822,-3.454c1.878,5.44 2.748,7.29 3.428,7.29c0.353,0 1.006,-0.354 2.203,-1.197l1.252,-0.87l-0.218,-0.517l-1.17,0.653c-0.381,0.217 -0.57,0.272 -0.789,0.272c-0.272,0 -0.462,-0.164 -0.706,-0.627c-0.953,-1.74 -1.552,-3.209 -2.613,-6.556l0.382,-0.38c1.659,-1.659 2.91,-2.34 4.27,-2.34c0.219,0 0.517,0.054 0.98,0.164l0.462,-1.714c-0.489,-0.163 -0.98,-0.246 -1.306,-0.246c-1.796,0 -4.053,2.096 -7.453,6.857l2.911,-13.385" style="fill-rule:nonzero;"/><path d="M373.986,180.535c-0.734,0.243 -1.225,0.407 -2.667,0.815c-0.189,2.067 -0.871,3.836 -2.447,6.447l0.38,0.3l1.115,-0.517c2.203,-2.856 3.238,-4.57 3.999,-6.666l-0.38,-0.379" style="fill-rule:nonzero;"/><path d="M374.631,191.197c0.272,0.136 0.627,0.191 1.035,0.191c1.087,0 2.176,-1.169 3.154,-3.374c0.546,-1.223 0.925,-2.584 1.688,-6.039l2.067,-9.52c0.109,-0.491 0.163,-0.844 0.163,-1.006c-0,-0.436 -0.244,-0.682 -0.68,-0.682c-0.599,0 -1.605,0.572 -3.645,2.015l-0.761,0.543l0.19,0.544l0.871,-0.57c1.006,-0.627 1.087,-0.682 1.278,-0.682c0.272,0 0.489,0.272 0.489,0.627c-0,0.108 -0.053,0.463 -0.136,0.761c-0.027,0.164 -0.053,0.272 -0.053,0.327l-2.721,13.465c-0.3,1.414 -0.789,2.367 -1.279,2.367c-0.38,0 -0.871,-0.164 -1.441,-0.517l-0.219,1.55Zm8.135,-26.686c-0.789,-0 -1.578,0.899 -1.578,1.824c-0,0.679 0.407,1.114 1.06,1.114c0.844,-0 1.497,-0.789 1.497,-1.822c-0,-0.653 -0.409,-1.116 -0.979,-1.116" style="fill-rule:nonzero;"/></g><g><path d="M7,33.618l0.323,0.971c1.041,-0.827 2.011,-1.15 3.269,-1.15c0.897,0 1.903,0.179 3.771,0.611c2.154,0.539 3.268,0.718 4.237,0.718c0.431,0 0.755,-0.072 1.795,-0.359c0.396,-2.227 0.683,-3.449 1.078,-5.136l-0.79,0l-0.789,2.155c-0.216,0.647 -0.647,0.898 -1.402,0.898c-0.431,0 -1.004,-0.072 -1.759,-0.251l-0.647,-0.144c-1.184,-0.252 -2.406,-0.431 -3.088,-0.431c-1.15,0 -2.12,0.215 -3.412,0.754l12.175,-13.719l0.216,-1.15l-0.324,-0.323l-0.826,0.827c-0.36,0.359 -0.718,0.503 -1.221,0.503c-1.222,-0 -3.089,-0.288 -4.812,-0.755l-0.647,-0.18c-1.006,-0.251 -1.724,-0.395 -2.227,-0.395c-0.611,-0 -1.328,0.108 -2.19,0.359l-1.15,4.382l0.754,0l1.079,-2.083c0.609,-0.144 0.932,-0.18 1.4,-0.18c0.503,0 0.898,0.036 1.615,0.18c1.222,0.251 2.155,0.359 2.91,0.359c1.293,0 2.154,-0.215 3.34,-0.826l-12.678,14.365" style="fill-rule:nonzero;"/><path d="M27.136,8.964l-1.523,7.698c-0.027,0.191 -0.055,0.245 -0.136,0.572c-0.163,0.761 -0.218,1.169 -0.218,1.495c0,0.681 0.299,1.089 0.816,1.089c0.953,0 1.905,-0.545 4.027,-2.258l0.407,-0.326l0.436,-0.355l-0.272,-0.489l-1.225,0.844c-0.789,0.544 -1.332,0.816 -1.632,0.816c-0.244,0 -0.38,-0.218 -0.38,-0.544c0,-0.708 0.38,-2.911 1.169,-6.855l0.354,-1.687l2.911,0l0.299,-1.36c-1.033,0.108 -1.958,0.163 -2.992,0.163c0.436,-2.557 0.734,-3.891 1.223,-5.36l-0.298,-0.407c-0.544,0.326 -1.279,0.653 -2.122,0.979l-0.68,4.625c-1.197,0.571 -1.905,0.871 -2.394,1.006l-0.054,0.354l2.284,0" style="fill-rule:nonzero;"/><path d="M24.561,34.818l0.191,0.544l0.87,-0.57c1.006,-0.627 1.087,-0.682 1.278,-0.682c0.272,0 0.491,0.272 0.491,0.627c0,0.191 -0.11,0.816 -0.219,1.197l-1.795,6.528c-0.218,0.844 -0.354,1.578 -0.354,2.095c0,0.653 0.299,1.061 0.816,1.061c0.708,0 1.688,-0.572 4.353,-2.558l-0.272,-0.489l-0.707,0.463c-0.79,0.517 -1.415,0.816 -1.66,0.816c-0.19,0 -0.353,-0.272 -0.353,-0.544c0,-0.272 0.055,-0.517 0.191,-1.089l2.093,-8.269c0.11,-0.463 0.164,-0.763 0.164,-0.98c0,-0.462 -0.245,-0.708 -0.681,-0.708c-0.598,0 -1.604,0.572 -3.645,2.015l-0.761,0.543Zm5.277,-8.814c-0.788,-0 -1.577,0.899 -1.577,1.824c0,0.679 0.408,1.114 1.061,1.114c0.842,-0 1.495,-0.789 1.495,-1.822c0,-0.653 -0.408,-1.116 -0.979,-1.116" style="fill-rule:nonzero;"/><path d="M37.286,42.028c-0.734,0.243 -1.225,0.407 -2.667,0.815c-0.189,2.067 -0.871,3.836 -2.447,6.447l0.38,0.3l1.115,-0.517c2.203,-2.856 3.238,-4.57 3.999,-6.666l-0.38,-0.379" style="fill-rule:nonzero;"/><path d="M45.202,25.732l-0.327,-0.3c-1.414,0.708 -2.394,0.953 -4.353,1.144l-0.108,0.57l1.305,-0c0.653,-0 0.925,0.191 0.925,0.654c0,0.217 -0.027,0.462 -0.053,0.653l-1.307,7.29c-0.381,2.041 -0.815,3.917 -2.231,9.603l0.245,0.272l1.822,-0.462l0.627,-3.374c0.245,-1.306 0.897,-2.529 1.822,-3.454c1.878,5.44 2.748,7.29 3.428,7.29c0.353,-0 1.006,-0.354 2.203,-1.197l1.252,-0.87l-0.218,-0.517l-1.17,0.653c-0.381,0.217 -0.57,0.272 -0.789,0.272c-0.272,-0 -0.462,-0.164 -0.706,-0.627c-0.953,-1.74 -1.552,-3.209 -2.613,-6.556l0.382,-0.38c1.659,-1.659 2.91,-2.34 4.27,-2.34c0.219,0 0.517,0.054 0.98,0.164l0.462,-1.714c-0.489,-0.163 -0.98,-0.246 -1.306,-0.246c-1.796,0 -4.053,2.096 -7.453,6.857l2.911,-13.385" style="fill-rule:nonzero;"/><path d="M56.986,42.028c-0.734,0.243 -1.225,0.407 -2.667,0.815c-0.189,2.067 -0.871,3.836 -2.447,6.447l0.38,0.3l1.115,-0.517c2.203,-2.856 3.238,-4.57 3.999,-6.666l-0.38,-0.379" style="fill-rule:nonzero;"/><path d="M57.631,52.69c0.272,0.136 0.627,0.191 1.035,0.191c1.087,0 2.176,-1.169 3.154,-3.374c0.546,-1.223 0.925,-2.584 1.688,-6.039l2.067,-9.52c0.109,-0.491 0.163,-0.844 0.163,-1.006c0,-0.436 -0.244,-0.682 -0.68,-0.682c-0.599,0 -1.605,0.572 -3.645,2.015l-0.761,0.543l0.19,0.544l0.871,-0.57c1.006,-0.627 1.087,-0.682 1.278,-0.682c0.272,0 0.489,0.272 0.489,0.627c0,0.108 -0.053,0.463 -0.136,0.761c-0.027,0.164 -0.053,0.272 -0.053,0.327l-2.721,13.465c-0.3,1.414 -0.789,2.367 -1.279,2.367c-0.38,0 -0.871,-0.164 -1.441,-0.517l-0.219,1.55Zm8.135,-26.686c-0.789,0 -1.578,0.899 -1.578,1.824c0,0.679 0.407,1.114 1.06,1.114c0.844,0 1.497,-0.789 1.497,-1.822c0,-0.653 -0.409,-1.116 -0.979,-1.116" style="fill-rule:nonzero;"/></g><g><path d="M4.036,103.838c-0.036,0.251 -0.036,0.467 -0.036,0.646c-0,1.544 1.33,2.802 2.945,2.802c3.807,-0 7.758,-4.453 9.877,-11.099l5.064,-15.801l-0.395,-0.324c-1.043,0.396 -1.868,0.611 -2.658,0.683l-1.258,4.741c-0.43,1.687 -1.687,4.309 -2.872,6.069c-1.258,1.832 -3.017,3.412 -3.808,3.412c-0.431,-0 -0.753,-0.826 -0.717,-1.723l0.036,-0.468l0.538,-6.967c0.071,-1.114 0.143,-2.478 0.143,-3.484c-0,-1.616 -0.251,-2.263 -0.861,-2.263c-0.467,-0 -0.97,0.252 -2.693,1.438l-2.946,2.011l0.396,0.645l1.795,-1.076l0.144,-0.108c0.359,-0.216 0.611,-0.324 0.754,-0.324c0.502,-0 0.789,0.683 0.789,1.868c-0,0.035 -0,0.251 -0.035,0.539l-0.61,8.726l-0.036,1.438c-0,1.507 0.646,2.55 1.544,2.55c1.328,-0 4.345,-3.053 7.039,-7.111l-1.759,6.14c-1.832,6.358 -3.628,8.98 -6.143,8.98c-1.256,-0 -2.226,-0.97 -2.226,-2.228c-0,-0.178 0.036,-0.466 0.072,-0.789l-0.36,-0.144l-1.723,1.22" style="fill-rule:nonzero;"/><path d="M26.388,71.964l-1.524,7.698c-0.026,0.191 -0.055,0.246 -0.136,0.572c-0.162,0.761 -0.217,1.169 -0.217,1.496c0,0.681 0.298,1.089 0.816,1.089c0.953,0 1.904,-0.546 4.026,-2.258l0.408,-0.327l0.436,-0.354l-0.272,-0.489l-1.225,0.843c-0.789,0.544 -1.333,0.816 -1.633,0.816c-0.244,0 -0.379,-0.217 -0.379,-0.544c0,-0.708 0.379,-2.911 1.168,-6.855l0.355,-1.687l2.911,0l0.298,-1.359c-1.032,0.107 -1.957,0.162 -2.992,0.162c0.436,-2.556 0.735,-3.891 1.224,-5.359l-0.299,-0.408c-0.544,0.326 -1.278,0.653 -2.122,0.98l-0.679,4.625c-1.197,0.57 -1.905,0.87 -2.394,1.006l-0.055,0.353l2.285,0" style="fill-rule:nonzero;"/><path d="M23.813,97.919l0.19,0.544l0.87,-0.571c1.007,-0.626 1.088,-0.681 1.279,-0.681c0.271,0 0.49,0.272 0.49,0.627c0,0.19 -0.109,0.815 -0.219,1.196l-1.795,6.529c-0.217,0.843 -0.353,1.578 -0.353,2.095c0,0.653 0.298,1.061 0.816,1.061c0.707,0 1.687,-0.572 4.353,-2.558l-0.272,-0.489l-0.708,0.462c-0.789,0.518 -1.414,0.816 -1.659,0.816c-0.191,0 -0.353,-0.272 -0.353,-0.544c0,-0.272 0.054,-0.517 0.19,-1.089l2.094,-8.269c0.109,-0.462 0.164,-0.762 0.164,-0.979c0,-0.463 -0.245,-0.708 -0.681,-0.708c-0.599,0 -1.605,0.572 -3.646,2.014l-0.76,0.544Zm5.276,-8.814c-0.787,0 -1.576,0.898 -1.576,1.823c0,0.68 0.407,1.114 1.06,1.114c0.843,0 1.496,-0.789 1.496,-1.822c0,-0.653 -0.408,-1.115 -0.98,-1.115" style="fill-rule:nonzero;"/><path d="M36.538,105.128c-0.735,0.244 -1.225,0.408 -2.668,0.816c-0.189,2.067 -0.87,3.836 -2.447,6.447l0.38,0.3l1.116,-0.518c2.203,-2.856 3.237,-4.57 3.998,-6.665l-0.379,-0.38" style="fill-rule:nonzero;"/><path d="M44.453,88.833l-0.326,-0.3c-1.414,0.708 -2.394,0.953 -4.354,1.144l-0.107,0.57l1.304,0c0.653,0 0.925,0.191 0.925,0.653c0,0.217 -0.026,0.463 -0.053,0.653l-1.306,7.291c-0.381,2.04 -0.816,3.917 -2.231,9.603l0.245,0.272l1.822,-0.463l0.626,-3.373c0.246,-1.306 0.897,-2.53 1.822,-3.455c1.878,5.441 2.749,7.291 3.428,7.291c0.354,0 1.007,-0.355 2.204,-1.197l1.251,-0.87l-0.217,-0.518l-1.17,0.654c-0.382,0.217 -0.571,0.271 -0.789,0.271c-0.272,0 -0.463,-0.164 -0.707,-0.626c-0.953,-1.741 -1.551,-3.21 -2.612,-6.556l0.381,-0.38c1.659,-1.659 2.911,-2.341 4.27,-2.341c0.219,0 0.518,0.055 0.98,0.164l0.463,-1.714c-0.489,-0.162 -0.98,-0.245 -1.307,-0.245c-1.795,0 -4.053,2.095 -7.453,6.856l2.911,-13.384" style="fill-rule:nonzero;"/><path d="M56.238,105.128c-0.735,0.244 -1.225,0.408 -2.668,0.816c-0.189,2.067 -0.87,3.836 -2.447,6.447l0.38,0.3l1.116,-0.518c2.203,-2.856 3.237,-4.57 3.998,-6.665l-0.379,-0.38" style="fill-rule:nonzero;"/><path d="M56.883,115.791c0.272,0.136 0.626,0.19 1.034,0.19c1.088,0 2.177,-1.169 3.155,-3.373c0.545,-1.224 0.925,-2.585 1.687,-6.039l2.068,-9.521c0.109,-0.49 0.162,-0.843 0.162,-1.006c0,-0.436 -0.244,-0.681 -0.68,-0.681c-0.598,0 -1.604,0.572 -3.645,2.014l-0.761,0.544l0.191,0.544l0.87,-0.571c1.006,-0.626 1.088,-0.681 1.278,-0.681c0.272,0 0.489,0.272 0.489,0.627c0,0.107 -0.053,0.462 -0.136,0.76c-0.026,0.165 -0.053,0.272 -0.053,0.327l-2.72,13.466c-0.3,1.414 -0.789,2.367 -1.28,2.367c-0.379,-0 -0.87,-0.164 -1.44,-0.517l-0.219,1.55Zm8.134,-26.686c-0.789,0 -1.578,0.898 -1.578,1.823c0,0.68 0.408,1.114 1.061,1.114c0.844,0 1.497,-0.789 1.497,-1.822c0,-0.653 -0.409,-1.115 -0.98,-1.115" style="fill-rule:nonzero;"/></g></g><g id="Layer1"><path d="M319,154c-64.569,-24.406 -150.247,-144.945 -249.091,-122.558l0,6.558c85.137,-8.673 160.705,106.935 249.091,123l0,-7Z" style="fill:#ebebeb;"/><path d="M69,96.115c43.703,12.975 66.092,-1.842 102,-21.669l-15.786,-14.446c-21.861,19.757 -45.065,29.442 -86.214,19.863l0,16.252Z" style="fill:#ebebeb;"/><path d="M251,50.029c-32.875,-1.043 -43.241,26.202 -55,39.971l10.254,0c17.417,-16.483 25.173,-32.827 44.746,-28.551l0,-11.42Z" style="fill:#ebebeb;"/></g><g transform="matrix(1,0,0,1,2.97679,-12.6791)"><text x="11.074px" y="181.304px" style="font-family:'ArialMT', 'Arial', sans-serif;font-size:12px;">Figure 2</text><text x="11.074px" y="193.697px" style="font-family:'ArialMT', 'Arial', sans-serif;font-size:12px;">retroï¬t asset tree</text></g></svg>